<svg xmlns="http://www.w3.org/2000/svg" viewBox="0 0 64 64">
    <g id="Layer_31" data-name="Layer 31"><circle cx="32" cy="30" r="23" style="fill:#f8c460"/>
        <path class="sun" d="M35,50A23,23,0,0,1,17.307,12.307,23,23,0,1,0,49.693,44.693,22.9,22.9,0,0,1,35,50Z" style="fill:#faaf42"/>
        <path class="wind" d="M39,40.5h0A1.5,1.5,0,0,0,40.5,42H44a2,2,0,0,1,2,2h0a2,2,0,0,1-2,2H22.5A1.5,1.5,0,0,0,21,47.5h0A1.5,1.5,0,0,0,22.5,49H44a5,5,0,0,0,5-5h0a5,5,0,0,0-5-5H40.5A1.5,1.5,0,0,0,39,40.5Z" style="fill:#d6e4e8"/>
        <path class="wind" d="M45,61.5h0A1.5,1.5,0,0,1,46.5,60H50a2,2,0,0,0,2-2h0a2,2,0,0,0-2-2H10.5A1.5,1.5,0,0,1,9,54.5H9A1.5,1.5,0,0,1,10.5,53H50a5,5,0,0,1,5,5h0a5,5,0,0,1-5,5H46.5A1.5,1.5,0,0,1,45,61.5Z" style="fill:#d6e4e8"/>
        <rect class="wind" x="9" y="46" width="8" height="3" rx="1.5" style="fill:#d6e4e8"/>
        <rect class="wind" x="31" y="60" width="8" height="3" rx="1.5" style="fill:#d6e4e8"/>
        <path class="sun" d="M32,5a1,1,0,0,0,1-1V2a1,1,0,0,0-2,0V4A1,1,0,0,0,32,5Z" style="fill:#f8c460"/>
        <path class="sun" d="M13.2,12.615A1,1,0,1,0,14.615,11.2L13.2,9.787A1,1,0,1,0,11.787,11.2Z" style="fill:#f8c460"/>
        <path class="sun" d="M6,29H4a1,1,0,0,0,0,2H6a1,1,0,0,0,0-2Z" style="fill:#f8c460"/>
        <path class="sun" d="M49.385,47.385a1,1,0,0,0,0,1.414L50.8,50.213A1,1,0,0,0,52.213,48.8L50.8,47.385A1,1,0,0,0,49.385,47.385Z" style="fill:#f8c460"/>
        <path class="sun" d="M60,29H58a1,1,0,0,0,0,2h2a1,1,0,0,0,0-2Z" style="fill:#f8c460"/>
        <path class="sun" d="M50.092,12.908a.993.993,0,0,0,.707-.293L52.213,11.2A1,1,0,1,0,50.8,9.787L49.385,11.2a1,1,0,0,0,.707,1.707Z" style="fill:#f8c460"/>
    </g>
    <style>
        .sun{
            animation: shine 8s ease-in-out alternate infinite;
            
        }
        .wind{
            animation:move 4s linear reverse  infinite;
        }
        @keyframes shine{
            0%{
                filter: brightness(1);
            }
            100%{
                filter: brightness(1.5);
            }
        }
        @keyframes move{
            0%{
                transform: translate(-3px, 0px);
            }
            100%{
                transform: translate(3px, 0px);
            }
        }
    </style>
</svg>