<svg xmlns="http://www.w3.org/2000/svg" viewBox="0 0 64 64"><g id="Layer_31" data-name="Layer 31"><path d="M57.838,24.252a9.99,9.99,0,0,0-19.676,0A7,7,0,0,0,40,38H56a7,7,0,0,0,1.838-13.748Z" style="fill:#62b5e8"/><path d="M59,35H43a7,7,0,0,1-7-7,6.93,6.93,0,0,1,.781-3.187A6.982,6.982,0,0,0,40,38H56a6.994,6.994,0,0,0,6.214-3.786A6.964,6.964,0,0,1,59,35Z" style="fill:#44a7d8"/><path d="M30.682,18A27.162,27.162,0,0,1,33.967,5.008c-.109,0-.216-.008-.325-.008A26.823,26.823,0,0,0,7,32,26.583,26.583,0,0,0,57,44.992,26.825,26.825,0,0,1,30.682,18Z" style="fill:#f8c460"/><path d="M27.838,38.252a9.99,9.99,0,0,0-19.676,0c-.139.038-.267.1-.4.146A27.053,27.053,0,0,0,15.745,52H26a7,7,0,0,0,1.838-13.748Z" style="fill:#faaf42"/><path d="M25.838,39.252a9.99,9.99,0,0,0-19.676,0A7,7,0,0,0,8,53H24a7,7,0,0,0,1.838-13.748Z" style="fill:#62b5e8"/><path d="M27,50H11a7,7,0,0,1-7-7,6.93,6.93,0,0,1,.781-3.187A6.982,6.982,0,0,0,8,53H24a6.994,6.994,0,0,0,6.214-3.786A6.964,6.964,0,0,1,27,50Z" style="fill:#44a7d8"/></g></svg>