<svg xmlns="http://www.w3.org/2000/svg" viewBox="0 0 64 64">
    <g id="Layer_31" data-name="Layer 31">
        <path class="cloud3" d="M42.847,21.043a13.982,13.982,0,0,0-27.694,0A10.995,10.995,0,0,0,16,43H42a10.995,10.995,0,0,0,.847-21.957Z" style="fill:#62b5e8"/>
        <path class="cloud3" d="M53,32A10.994,10.994,0,0,0,42.847,21.043a13.88,13.88,0,0,0-.781-3A11,11,0,0,0,32.05,28c-.017,0-.033,0-.05,0a7.986,7.986,0,0,0-6.761,3.737A10.973,10.973,0,0,0,6.383,36.164c-.174.036-.344.082-.513.129A11,11,0,0,0,16,43H42A11,11,0,0,0,53,32Z" style="fill:#44a7d8"/>
        <path class="cloud2" d="M55,31c-.017,0-.033,0-.05,0a10.995,10.995,0,0,0-21.9,0c-.017,0-.033,0-.05,0a8,8,0,0,0,0,16H55a8,8,0,0,0,0-16Z" style="fill:#98deea"/>
        <path class="cloud2" d="M56.265,46.89c.246-.039.489-.089.727-.15.08-.021.161-.039.24-.062A7.916,7.916,0,0,0,59,45.919c.056-.032.11-.066.164-.1a8.085,8.085,0,0,0,.7-.482c.029-.023.059-.043.088-.066a8.111,8.111,0,0,0,1.391-1.417l.06-.08a8.058,8.058,0,0,0,.542-.823h0A7.959,7.959,0,0,1,58,44H36.744a8.007,8.007,0,0,0-6.127-5.836A10.932,10.932,0,0,0,28.3,33.841a8.033,8.033,0,0,1,.746-1.792h0a8.037,8.037,0,0,0-1.42,1.048l-.007-.007A7.991,7.991,0,0,0,33,47H55a7.887,7.887,0,0,0,.99-.068C56.082,46.921,56.173,46.905,56.265,46.89Z" style="fill:#82d0d8"/>
        <path class="cloud1" d="M28.617,39.164a10.986,10.986,0,0,0-21.234,0A8,8,0,0,0,9,55H27a8,8,0,0,0,1.617-15.836Z" style="fill:#d6e4e8"/>
        <path class="cloud1" d="M30,52H12A8,8,0,0,1,5.041,40.054,8,8,0,0,0,9,55H27a7.993,7.993,0,0,0,6.951-4.049A7.959,7.959,0,0,1,30,52Z" style="fill:#baced3"/>
    </g>
    <style>
        .cloud1{
            animation: cloudA 17s linear infinite ;
        }
        .cloud2{
            animation: cloudB 20s linear infinite alternate;
        }
        .cloud3{
            animation: cloudC 18s linear infinite alternate;
        }
        @keyframes cloudA{
            0%{
                transform: translate(-70px,0px);
            }
            100%{
                transform: translate(98px,0px);
            }
        }
        @keyframes cloudB{
            0%{
                transform: translate(73px,0px);
            }
            100%{
                transform: translate(-98px,0px);
            }

        }
        @keyframes cloudC{
            0%{
                transform: translate(-70px,0px);
            }
            100%{
                transform: translate(98px,0px);
            }
        }
    </style>
    
</svg>