<svg xmlns="http://www.w3.org/2000/svg" viewBox="0 0 64 64"><g id="Layer_31" data-name="Layer 31"><circle cx="44" cy="20" r="13" style="fill:#f8c460"/><path d="M42.515,32.917a13,13,0,0,0,12.839-6.593A10.988,10.988,0,0,0,45,19h-.066A8.39,8.39,0,0,1,37.725,15.4a14.072,14.072,0,0,0-3.631-3.8,12.991,12.991,0,0,0,8.421,21.324Z" style="fill:#faaf42"/><path d="M38.847,23.043a13.982,13.982,0,0,0-27.694,0A10.995,10.995,0,0,0,12,45H38a10.995,10.995,0,0,0,.847-21.957Z" style="fill:#7a838b"/><path d="M49,34A10.994,10.994,0,0,0,38.847,23.043a13.941,13.941,0,0,0-.556-2.39A11,11,0,0,0,31.05,30c-.017,0-.033,0-.05,0a8,8,0,0,0-3.87,15H38A11,11,0,0,0,49,34Z" style="fill:#5d6972"/><path d="M41,42H15A10.986,10.986,0,0,1,5.864,24.892,10.986,10.986,0,0,0,12,45H38a10.988,10.988,0,0,0,9.132-4.868A10.945,10.945,0,0,1,41,42Z" style="fill:#5d6972"/><path d="M55,31c-.017,0-.033,0-.05,0a10.995,10.995,0,0,0-21.9,0c-.017,0-.033,0-.05,0a8,8,0,0,0,0,16H55a8,8,0,0,0,0-16Z" style="fill:#7a838b"/><path d="M58,44H36a7.993,7.993,0,0,1-6.951-11.951A8,8,0,0,0,33,47H55a7.993,7.993,0,0,0,6.951-4.049A7.959,7.959,0,0,1,58,44Z" style="fill:#5d6972"/><polygon points="38 43 34 43 38 31 29 31 26 47 31 47 28 63 38 43" style="fill:#f8c460"/><polygon points="32 31 29 31 26 47 29 47 32 31" style="fill:#faaf42"/><polygon points="34 47 31 47 28 63 32.8 53.4 34 47" style="fill:#faaf42"/><path d="M10.855,53h0A1.792,1.792,0,0,1,9.2,50.411l2.29-4.422A1.861,1.861,0,0,1,13.145,45h0A1.792,1.792,0,0,1,14.8,47.589l-2.29,4.422A1.861,1.861,0,0,1,10.855,53Z" style="fill:#62b5e8"/><path d="M50.855,53h0A1.792,1.792,0,0,1,49.2,50.411l2.29-4.422A1.861,1.861,0,0,1,53.145,45h0A1.792,1.792,0,0,1,54.8,47.589l-2.29,4.422A1.861,1.861,0,0,1,50.855,53Z" style="fill:#62b5e8"/><path d="M20.855,63h0A1.792,1.792,0,0,1,19.2,60.411l2.29-4.422A1.861,1.861,0,0,1,23.145,55h0A1.792,1.792,0,0,1,24.8,57.589l-2.29,4.422A1.861,1.861,0,0,1,20.855,63Z" style="fill:#62b5e8"/><path d="M40.855,63h0A1.792,1.792,0,0,1,39.2,60.411l2.29-4.422A1.861,1.861,0,0,1,43.145,55h0A1.792,1.792,0,0,1,44.8,57.589l-2.29,4.422A1.861,1.861,0,0,1,40.855,63Z" style="fill:#62b5e8"/><path d="M44,4.994a1,1,0,0,0,1-1v-2a1,1,0,0,0-2,0v2A1,1,0,0,0,44,4.994Z" style="fill:#f8c460"/><path d="M60,21h2a1,1,0,0,0,0-2H60a1,1,0,0,0,0,2Z" style="fill:#f8c460"/><path d="M56.021,9.973a1,1,0,0,0,.707-.293l1.414-1.414a1,1,0,1,0-1.414-1.414L55.313,8.266a1,1,0,0,0,.708,1.707Z" style="fill:#f8c460"/><path d="M31.272,9.68a1,1,0,0,0,1.415-1.414L31.272,6.852a1,1,0,1,0-1.414,1.414Z" style="fill:#f8c460"/></g></svg>