<svg xmlns="http://www.w3.org/2000/svg" viewBox="0 0 64 64"><g id="Layer_31" data-name="Layer 31"><path d="M60.159,22.912c-8.571,0-15.519-7.227-15.519-16.141A16.651,16.651,0,0,1,45.679,1,15.979,15.979,0,0,0,33,16.859C33,25.773,39.948,33,48.52,33A15.545,15.545,0,0,0,63,22.629,14.956,14.956,0,0,1,60.159,22.912Z" style="fill:#f8c460"/><path d="M58.278,29.332a4.176,4.176,0,0,1-2.828-2.76,10.991,10.991,0,0,0-12.5-7.379A4.044,4.044,0,0,1,38.573,16.9,14.08,14.08,0,0,0,33.9,11.458a16.651,16.651,0,0,0-.9,5.4C33,25.773,39.948,33,48.52,33a15.056,15.056,0,0,0,9.816-3.651Z" style="fill:#faaf42"/><path d="M38.847,23.043a13.982,13.982,0,0,0-27.694,0A10.995,10.995,0,0,0,12,45H38a10.995,10.995,0,0,0,.847-21.957Z" style="fill:#62b5e8"/><path d="M49,34A10.994,10.994,0,0,0,38.847,23.043a13.941,13.941,0,0,0-.556-2.39A11,11,0,0,0,31.05,30c-.017,0-.033,0-.05,0a8,8,0,0,0-3.87,15H38A11,11,0,0,0,49,34Z" style="fill:#44a7d8"/><path d="M41,42H15A10.986,10.986,0,0,1,5.864,24.892,10.986,10.986,0,0,0,12,45H38a10.988,10.988,0,0,0,9.132-4.868A10.945,10.945,0,0,1,41,42Z" style="fill:#44a7d8"/><path d="M55,31c-.017,0-.033,0-.05,0a10.995,10.995,0,0,0-21.9,0c-.017,0-.033,0-.05,0a8,8,0,0,0,0,16H55a8,8,0,0,0,0-16Z" style="fill:#62b5e8"/><path d="M58,44H36a7.993,7.993,0,0,1-6.951-11.951A8,8,0,0,0,33,47H55a7.993,7.993,0,0,0,6.951-4.049A7.959,7.959,0,0,1,58,44Z" style="fill:#44a7d8"/><path d="M39,39.5h0A1.5,1.5,0,0,0,40.5,41H44a2,2,0,0,1,2,2h0a2,2,0,0,1-2,2H22.5A1.5,1.5,0,0,0,21,46.5h0A1.5,1.5,0,0,0,22.5,48H44a5,5,0,0,0,5-5h0a5,5,0,0,0-5-5H40.5A1.5,1.5,0,0,0,39,39.5Z" style="fill:#d6e4e8"/><path d="M45,61.5h0A1.5,1.5,0,0,1,46.5,60H50a2,2,0,0,0,2-2h0a2,2,0,0,0-2-2H10.5A1.5,1.5,0,0,1,9,54.5H9A1.5,1.5,0,0,1,10.5,53H50a5,5,0,0,1,5,5h0a5,5,0,0,1-5,5H46.5A1.5,1.5,0,0,1,45,61.5Z" style="fill:#d6e4e8"/><rect x="9" y="45" width="8" height="3" rx="1.5" style="fill:#d6e4e8"/><rect x="31" y="60" width="8" height="3" rx="1.5" style="fill:#d6e4e8"/></g></svg>