<svg xmlns="http://www.w3.org/2000/svg" viewBox="0 0 64 64">
    <g id="Layer_31" data-name="Layer 31">
        <path d="M38.847,13.043a13.982,13.982,0,0,0-27.694,0A10.995,10.995,0,0,0,12,35H38a10.995,10.995,0,0,0,.847-21.957Z" style="fill:#98deea"/>
        <path d="M41,32H15A10.986,10.986,0,0,1,5.864,14.892,10.986,10.986,0,0,0,12,35H38a10.988,10.988,0,0,0,9.132-4.868A10.945,10.945,0,0,1,41,32Z" style="fill:#82d0d8"/>
        <path d="M49,24A10.994,10.994,0,0,0,38.847,13.043a13.941,13.941,0,0,0-.556-2.39A11,11,0,0,0,31.05,20c-.017,0-.033,0-.05,0a8,8,0,0,0-3.87,15H38A11,11,0,0,0,49,24Z" style="fill:#82d0d8"/>
        <path d="M55,21c-.017,0-.033,0-.05,0a10.995,10.995,0,0,0-21.9,0c-.017,0-.033,0-.05,0a8,8,0,0,0,0,16H55a8,8,0,0,0,0-16Z" style="fill:#98deea"/>
        <circle cx="17" cy="41" r="2" style="fill:#d6e4e8"/>
        <circle cx="11" cy="51" r="2" style="fill:#d6e4e8"/>
        <circle cx="17" cy="61" r="2" style="fill:#d6e4e8"/>
        <circle cx="47" cy="41" r="2" style="fill:#d6e4e8"/>
        <circle cx="53" cy="51" r="2" style="fill:#d6e4e8"/>
        <circle cx="47" cy="61" r="2" style="fill:#d6e4e8"/>
        <path d="M58,34H36a7.993,7.993,0,0,1-6.951-11.951A8,8,0,0,0,33,37H55a7.993,7.993,0,0,0,6.951-4.049A7.959,7.959,0,0,1,58,34Z" style="fill:#82d0d8"/>
        <path class="snow" d="M41.874,45.514a1,1,0,0,0-1.359-.388L38.1,46.465l.5-1.8a1,1,0,1,0-1.925-.537l-1.03,3.7L33,49.3V46.426l2.812-2.705a1,1,0,0,0-1.387-1.442L33,43.65V41a1,1,0,0,0-2,0v2.65l-1.425-1.371a1,1,0,0,0-1.387,1.442L31,46.426V49.3l-2.649-1.472-1.03-3.7a1,1,0,1,0-1.925.537l.5,1.8-2.41-1.339a1,1,0,1,0-.97,1.748l2.309,1.283-1.833.473A1,1,0,0,0,23.24,50.6a.988.988,0,0,0,.251-.032l3.873-1L29.941,51l-2.577,1.432-3.873-1a1,1,0,1,0-.5,1.936l1.833.473-2.309,1.283a1,1,0,1,0,.97,1.748l2.41-1.339-.5,1.8a1,1,0,0,0,.694,1.232,1.05,1.05,0,0,0,.269.037,1,1,0,0,0,.962-.732l1.03-3.7L31,52.7v2.875l-2.812,2.705a1,1,0,0,0,1.387,1.442L31,58.35V61a1,1,0,0,0,2,0V58.35l1.425,1.371a1,1,0,0,0,1.387-1.442L33,55.574V52.7l2.649,1.472,1.03,3.7a1,1,0,0,0,.962.732,1.05,1.05,0,0,0,.269-.037A1,1,0,0,0,38.6,57.33l-.5-1.8,2.41,1.339a1,1,0,1,0,.97-1.748l-2.309-1.283,1.833-.473a1,1,0,1,0-.5-1.936l-3.873,1L34.059,51l2.577-1.432,3.873,1a.945.945,0,0,0,.251.032,1,1,0,0,0,.249-1.968l-1.833-.473,2.309-1.283A1,1,0,0,0,41.874,45.514Z" style="fill:#d6e4e8"/>
    </g>
    <style>
        circle, .snow{
            animation: move 2s alternate linear infinite;
        }
        @keyframes move{
            0%{
                opacity:1;
                filter: brightness(1);

            }
            100%{
                opacity:0.5;
                filter: brightness(1.5);
            }
        }
    </style>
</svg>