<svg xmlns="http://www.w3.org/2000/svg" viewBox="0 0 64 64"><g id="Layer_31" data-name="Layer 31"><path d="M60.159,22.912c-8.571,0-15.519-7.227-15.519-16.141A16.651,16.651,0,0,1,45.679,1,15.979,15.979,0,0,0,33,16.859C33,25.773,39.948,33,48.52,33A15.545,15.545,0,0,0,63,22.629,14.956,14.956,0,0,1,60.159,22.912Z" style="fill:#f8c460"/><path d="M58.278,29.332a4.176,4.176,0,0,1-2.828-2.76,10.991,10.991,0,0,0-12.5-7.379A4.044,4.044,0,0,1,38.573,16.9,14.08,14.08,0,0,0,33.9,11.458a16.651,16.651,0,0,0-.9,5.4C33,25.773,39.948,33,48.52,33a15.056,15.056,0,0,0,9.816-3.651Z" style="fill:#faaf42"/><path d="M38.847,23.043a13.982,13.982,0,0,0-27.694,0A10.995,10.995,0,0,0,12,45H38a10.995,10.995,0,0,0,.847-21.957Z" style="fill:#62b5e8"/><path d="M49,34A10.994,10.994,0,0,0,38.847,23.043a13.941,13.941,0,0,0-.556-2.39A11,11,0,0,0,31.05,30c-.017,0-.033,0-.05,0a8,8,0,0,0-3.87,15H38A11,11,0,0,0,49,34Z" style="fill:#44a7d8"/><path d="M41,42H15A10.986,10.986,0,0,1,5.864,24.892,10.986,10.986,0,0,0,12,45H38a10.988,10.988,0,0,0,9.132-4.868A10.945,10.945,0,0,1,41,42Z" style="fill:#44a7d8"/><path d="M55,31c-.017,0-.033,0-.05,0a10.995,10.995,0,0,0-21.9,0c-.017,0-.033,0-.05,0a8,8,0,0,0,0,16H55a8,8,0,0,0,0-16Z" style="fill:#62b5e8"/><path d="M58,44H36a7.993,7.993,0,0,1-6.951-11.951A8,8,0,0,0,33,47H55a7.993,7.993,0,0,0,6.951-4.049A7.959,7.959,0,0,1,58,44Z" style="fill:#44a7d8"/><circle cx="17" cy="41" r="2" style="fill:#d6e4e8"/><circle cx="11" cy="51" r="2" style="fill:#d6e4e8"/><circle cx="17" cy="61" r="2" style="fill:#d6e4e8"/><circle cx="47" cy="41" r="2" style="fill:#d6e4e8"/><circle cx="53" cy="51" r="2" style="fill:#d6e4e8"/><circle cx="47" cy="61" r="2" style="fill:#d6e4e8"/><path d="M41.874,45.517a1,1,0,0,0-1.36-.389L38.1,46.466l.5-1.793a1,1,0,0,0-1.926-.537l-1.029,3.7L33,49.3V46.428l2.811-2.7a1,1,0,1,0-1.387-1.441L33,43.652V41a1,1,0,0,0-2,0v2.649l-1.424-1.37a1,1,0,0,0-1.387,1.441L31,46.428V49.3l-2.649-1.471-1.029-3.695a1,1,0,0,0-1.926.537l.5,1.793-2.409-1.338a1,1,0,0,0-.972,1.748l2.31,1.283-1.832.472a1,1,0,0,0,.249,1.968,1.031,1.031,0,0,0,.25-.031l3.873-1L29.941,51l-2.577,1.432-3.873-1a1,1,0,0,0-.5,1.937l1.832.472-2.31,1.283a1,1,0,0,0,.972,1.748L25.9,55.537l-.5,1.793a1,1,0,0,0,.7,1.231.957.957,0,0,0,.268.037,1,1,0,0,0,.963-.731l1.029-3.695L31,52.7v2.874l-2.811,2.7a1,1,0,0,0,1.387,1.441L31,58.351V61a1,1,0,0,0,2,0V58.351l1.424,1.37a1,1,0,1,0,1.387-1.441L33,55.575V52.7l2.649,1.471,1.029,3.7a1,1,0,0,0,.963.731.957.957,0,0,0,.268-.037,1,1,0,0,0,.7-1.231l-.5-1.793,2.409,1.338a1,1,0,0,0,.972-1.748l-2.31-1.283,1.832-.472a1,1,0,0,0-.5-1.937l-3.873,1L34.059,51l2.577-1.431,3.873,1a1.031,1.031,0,0,0,.25.031,1,1,0,0,0,.249-1.968l-1.832-.472,2.31-1.283A1,1,0,0,0,41.874,45.517Z" style="fill:#d6e4e8"/></g></svg>