<svg xmlns="http://www.w3.org/2000/svg" viewBox="0 0 64 64"><g id="Layer_31" data-name="Layer 31"><circle cx="44" cy="20" r="13" style="fill:#f8c460"/><path d="M42.515,32.917a13,13,0,0,0,12.839-6.593A10.988,10.988,0,0,0,45,19h-.066A8.39,8.39,0,0,1,37.725,15.4a14.072,14.072,0,0,0-3.631-3.8,12.991,12.991,0,0,0,8.421,21.324Z" style="fill:#faaf42"/><path d="M38.847,23.043a13.982,13.982,0,0,0-27.694,0A10.995,10.995,0,0,0,12,45H38a10.995,10.995,0,0,0,.847-21.957Z" style="fill:#7a838b"/><path d="M41,42H15A10.986,10.986,0,0,1,5.864,24.892,10.986,10.986,0,0,0,12,45H38a10.988,10.988,0,0,0,9.132-4.868A10.945,10.945,0,0,1,41,42Z" style="fill:#5d6972"/><path d="M49,34A10.994,10.994,0,0,0,38.847,23.043a13.941,13.941,0,0,0-.556-2.39A11,11,0,0,0,31.05,30c-.017,0-.033,0-.05,0a8,8,0,0,0-3.87,15H38A11,11,0,0,0,49,34Z" style="fill:#5d6972"/><path d="M55,31c-.017,0-.033,0-.05,0a10.995,10.995,0,0,0-21.9,0c-.017,0-.033,0-.05,0a8,8,0,0,0,0,16H55a8,8,0,0,0,0-16Z" style="fill:#7a838b"/><path d="M58,44H36a7.993,7.993,0,0,1-6.951-11.951A8,8,0,0,0,33,47H55a7.993,7.993,0,0,0,6.951-4.049A7.959,7.959,0,0,1,58,44Z" style="fill:#5d6972"/><path d="M8.855,53h0A1.792,1.792,0,0,1,7.2,50.411l2.29-4.422A1.861,1.861,0,0,1,11.145,45h0A1.792,1.792,0,0,1,12.8,47.589l-2.29,4.422A1.861,1.861,0,0,1,8.855,53Z" style="fill:#62b5e8"/><path d="M13.855,63h0A1.792,1.792,0,0,1,12.2,60.411l2.29-4.422A1.861,1.861,0,0,1,16.145,55h0A1.792,1.792,0,0,1,17.8,57.589l-2.29,4.422A1.861,1.861,0,0,1,13.855,63Z" style="fill:#62b5e8"/><path d="M52.855,53h0A1.792,1.792,0,0,1,51.2,50.411l2.29-4.422A1.861,1.861,0,0,1,55.145,45h0A1.792,1.792,0,0,1,56.8,47.589l-2.29,4.422A1.861,1.861,0,0,1,52.855,53Z" style="fill:#62b5e8"/><path d="M43.855,63h0A1.792,1.792,0,0,1,42.2,60.411l2.29-4.422A1.861,1.861,0,0,1,46.145,55h0A1.792,1.792,0,0,1,47.8,57.589l-2.29,4.422A1.861,1.861,0,0,1,43.855,63Z" style="fill:#62b5e8"/><path d="M41.874,56.485a1,1,0,0,0-.389-1.359l-2.309-1.283,1.833-.472a1,1,0,1,0-.5-1.937l-3.873,1L34.059,51l2.577-1.432,3.873,1a.988.988,0,0,0,.251.032,1,1,0,0,0,.249-1.969l-1.833-.472,2.309-1.283a1,1,0,1,0-.97-1.748L38.1,46.465l.5-1.794a1,1,0,1,0-1.925-.537l-1.03,3.7L33,49.3V46.426l2.812-2.705a1,1,0,0,0-1.387-1.442L33,43.65V41a1,1,0,0,0-2,0v2.65l-1.425-1.371a1,1,0,0,0-1.387,1.442L31,46.426V49.3l-2.649-1.472-1.03-3.695a1,1,0,1,0-1.925.537l.5,1.794-2.41-1.339a1,1,0,1,0-.97,1.748l2.309,1.283-1.833.472A1,1,0,0,0,23.24,50.6a.988.988,0,0,0,.251-.032l3.873-1L29.941,51l-2.577,1.432-3.873-1a1,1,0,1,0-.5,1.937l1.833.472-2.309,1.283A1,1,0,0,0,23,57a.985.985,0,0,0,.484-.126l2.41-1.339-.5,1.794a1,1,0,1,0,1.925.537l1.03-3.695L31,52.7v2.875l-2.812,2.705a1,1,0,0,0,1.387,1.442L31,58.35V61a1,1,0,0,0,2,0V58.35l1.425,1.371a1,1,0,0,0,1.387-1.442L33,55.574V52.7l2.649,1.472,1.03,3.7a1,1,0,1,0,1.925-.537l-.5-1.794,2.41,1.339A.985.985,0,0,0,41,57,1,1,0,0,0,41.874,56.485Z" style="fill:#d6e4e8"/><path d="M44,4.994a1,1,0,0,0,1-1v-2a1,1,0,0,0-2,0v2A1,1,0,0,0,44,4.994Z" style="fill:#f8c460"/><path d="M60,21h2a1,1,0,0,0,0-2H60a1,1,0,0,0,0,2Z" style="fill:#f8c460"/><path d="M55.021,9.973a1,1,0,0,0,.707-.293l1.414-1.414a1,1,0,1,0-1.414-1.414L54.313,8.266a1,1,0,0,0,.708,1.707Z" style="fill:#f8c460"/><path d="M32.272,9.68a1,1,0,1,0,1.415-1.414L32.272,6.852a1,1,0,1,0-1.414,1.414Z" style="fill:#f8c460"/></g></svg>