<svg xmlns="http://www.w3.org/2000/svg" viewBox="0 0 64 64">
    <g id="Layer_31" data-name="Layer 31">
        <path d="M38.847,15.043a13.982,13.982,0,0,0-27.694,0A10.995,10.995,0,0,0,12,37H38a10.995,10.995,0,0,0,.847-21.957Z" style="fill:#7a838b"/>
        <path d="M49,26A10.994,10.994,0,0,0,38.847,15.043a13.941,13.941,0,0,0-.556-2.39A11,11,0,0,0,31.05,22c-.017,0-.033,0-.05,0a8,8,0,0,0-3.87,15H38A11,11,0,0,0,49,26Z" style="fill:#5d6972"/>
        <path d="M41,34H15A10.986,10.986,0,0,1,5.864,16.892,10.986,10.986,0,0,0,12,37H38a10.988,10.988,0,0,0,9.132-4.868A10.945,10.945,0,0,1,41,34Z" style="fill:#5d6972"/>
        <path d="M55,23c-.017,0-.033,0-.05,0a10.995,10.995,0,0,0-21.9,0c-.017,0-.033,0-.05,0a8,8,0,0,0,0,16H55a8,8,0,0,0,0-16Z" style="fill:#7a838b"/>
        <path d="M58,36H36a7.993,7.993,0,0,1-6.951-11.951A8,8,0,0,0,33,39H55a7.993,7.993,0,0,0,6.951-4.049A7.959,7.959,0,0,1,58,36Z" style="fill:#5d6972"/>
        <path class="wind" d="M43,38.5h0A1.5,1.5,0,0,0,44.5,40H48a2,2,0,0,1,2,2h0a2,2,0,0,1-2,2H28.5A1.5,1.5,0,0,0,27,45.5h0A1.5,1.5,0,0,0,28.5,47H48a5,5,0,0,0,5-5h0a5,5,0,0,0-5-5H44.5A1.5,1.5,0,0,0,43,38.5Z" style="fill:#d6e4e8"/>
        <path class="wind" d="M49,59.5h0A1.5,1.5,0,0,1,50.5,58H54a2,2,0,0,0,2-2h0a2,2,0,0,0-2-2H42.5A1.5,1.5,0,0,1,41,52.5h0A1.5,1.5,0,0,1,42.5,51H54a5,5,0,0,1,5,5h0a5,5,0,0,1-5,5H50.5A1.5,1.5,0,0,1,49,59.5Z" style="fill:#d6e4e8"/>
        <rect class ="wind" x="39" y="58" width="6" height="3" rx="1.5" style="fill:#d6e4e8"/>
        <rect class="wind" x="31" y="51" width="6" height="3" rx="1.5" style="fill:#d6e4e8"/>
        <path class="rain" d="M6.855,49h0A1.792,1.792,0,0,1,5.2,46.411l2.29-4.422A1.861,1.861,0,0,1,9.145,41h0A1.792,1.792,0,0,1,10.8,43.589l-2.29,4.422A1.861,1.861,0,0,1,6.855,49Z" style="fill:#62b5e8"/>
        <path class="rain" d="M18.855,49h0A1.792,1.792,0,0,1,17.2,46.411l2.29-4.422A1.861,1.861,0,0,1,21.145,41h0A1.792,1.792,0,0,1,22.8,43.589l-2.29,4.422A1.861,1.861,0,0,1,18.855,49Z" style="fill:#62b5e8"/>
        <path class="rain" d="M10.855,61h0A1.792,1.792,0,0,1,9.2,58.411l2.29-4.422A1.861,1.861,0,0,1,13.145,53h0A1.792,1.792,0,0,1,14.8,55.589l-2.29,4.422A1.861,1.861,0,0,1,10.855,61Z" style="fill:#62b5e8"/>
        <path class="rain" d="M22.855,61h0A1.792,1.792,0,0,1,21.2,58.411l2.29-4.422A1.861,1.861,0,0,1,25.145,53h0A1.792,1.792,0,0,1,26.8,55.589l-2.29,4.422A1.861,1.861,0,0,1,22.855,61Z" style="fill:#62b5e8"/>
    </g>
    <style>
        .rain{
            animation: move 2s linear infinite;
        }
        .wind{
            animation: wind 6s linear infinite;
        }
        @keyframes move{
            0%{
                transform: translate(-2px, -2px);
            }
            100%{
                transform: translate(-3px, 3px);
            }
        }
        @keyframes wind{
            0%{
                transform: translate(6px, 0px);
            }
            100%{
                transform: translate(2px, 0px);
            }
        }
    </style>
</svg>