<svg xmlns="http://www.w3.org/2000/svg" viewBox="0 0 64 64"><g id="Layer_31" data-name="Layer 31"><path d="M60.159,30.912c-8.571,0-15.519-7.227-15.519-16.141A16.651,16.651,0,0,1,45.679,9,15.979,15.979,0,0,0,33,24.859C33,33.773,39.948,41,48.52,41A15.545,15.545,0,0,0,63,30.629,14.956,14.956,0,0,1,60.159,30.912Z" style="fill:#f8c460"/><path d="M58.278,37.332a4.176,4.176,0,0,1-2.828-2.76,10.991,10.991,0,0,0-12.5-7.379A4.044,4.044,0,0,1,38.573,24.9,14.08,14.08,0,0,0,33.9,19.458a16.651,16.651,0,0,0-.9,5.4C33,33.773,39.948,41,48.52,41a15.056,15.056,0,0,0,9.816-3.651Z" style="fill:#faaf42"/><path d="M38.847,31.043a13.982,13.982,0,0,0-27.694,0A10.995,10.995,0,0,0,12,53H38a10.995,10.995,0,0,0,.847-21.957Z" style="fill:#62b5e8"/><path d="M41,50H15A10.986,10.986,0,0,1,5.864,32.892,10.986,10.986,0,0,0,12,53H38a10.988,10.988,0,0,0,9.132-4.868A10.945,10.945,0,0,1,41,50Z" style="fill:#44a7d8"/><path d="M49,42A10.994,10.994,0,0,0,38.847,31.043a13.941,13.941,0,0,0-.556-2.39A11,11,0,0,0,31.05,38c-.017,0-.033,0-.05,0a8,8,0,0,0-3.87,15H38A11,11,0,0,0,49,42Z" style="fill:#44a7d8"/><path d="M55,39c-.017,0-.033,0-.05,0a10.995,10.995,0,0,0-21.9,0c-.017,0-.033,0-.05,0a8,8,0,0,0,0,16H55a8,8,0,0,0,0-16Z" style="fill:#62b5e8"/><path d="M58,52H36a7.993,7.993,0,0,1-6.951-11.951A8,8,0,0,0,33,55H55a7.993,7.993,0,0,0,6.951-4.049A7.959,7.959,0,0,1,58,52Z" style="fill:#44a7d8"/></g></svg>