<svg width="103" height="111" viewBox="0 0 103 111" fill="none" xmlns="http://www.w3.org/2000/svg">
<g clip-path="url(#clip0_1_15)">
<path d="M61.9096 28.1947C61.1572 22.8717 58.4873 17.9974 54.3921 14.47C50.2968 10.9427 45.0521 9 39.6246 9C34.197 9 28.9523 10.9427 24.857 14.47C20.7618 17.9974 18.0919 22.8717 17.3395 28.1947C12.7795 28.5453 8.53372 30.6309 5.49258 34.014C2.45145 37.3971 0.851234 41.8148 1.02754 46.3408C1.20384 50.8668 3.14297 55.1494 6.43824 58.2904C9.73351 61.4315 14.1289 63.1869 18.7027 63.1887H60.5464C65.1202 63.1869 69.5156 61.4315 72.8109 58.2904C76.1062 55.1494 78.0453 50.8668 78.2216 46.3408C78.3979 41.8148 76.7977 37.3971 73.7565 34.014C70.7154 30.6309 66.4696 28.5453 61.9096 28.1947Z" fill="#98DEEA"/>
<path d="M65.3747 58.4074H23.531C20.3243 58.4114 17.1769 57.5517 14.4257 55.9204C11.6745 54.289 9.42309 51.9474 7.91255 49.1462C6.40201 46.3451 5.68918 43.1898 5.85039 40.0183C6.01159 36.8467 7.04076 33.7783 8.8277 31.1415C5.67916 33.2341 3.2934 36.2737 2.02255 39.8117C0.751695 43.3496 0.663096 47.1984 1.76983 50.79C2.87656 54.3816 5.11997 57.5257 8.16895 59.7582C11.2179 61.9907 14.9109 63.1934 18.7028 63.1887H60.5466C63.4513 63.1903 66.3117 62.4832 68.875 61.1301C71.4383 59.7769 73.6255 57.8193 75.2434 55.4303C72.3276 57.3757 68.8906 58.4126 65.3747 58.4074Z" fill="#82D0D8"/>
<path d="M78.2497 45.6574C78.2478 41.2437 76.5638 36.9933 73.5345 33.7558C70.5052 30.5184 66.3536 28.5323 61.9097 28.1947C61.7251 26.9014 61.4257 25.6268 61.0149 24.3856C57.8419 25.5123 55.0596 27.5127 52.9952 30.1516C50.9308 32.7906 49.6702 35.9583 49.3614 39.2824C49.3341 39.2824 49.3083 39.2824 49.281 39.2824C46.427 39.2835 43.6544 40.2235 41.3986 41.9548C39.1429 43.6861 37.532 46.1106 36.819 48.8472C36.106 51.5838 36.3314 54.4774 37.4598 57.0734C38.5881 59.6693 40.5555 61.8204 43.0527 63.1887H60.5466C62.8714 63.1887 65.1734 62.7352 67.3213 61.8542C69.4691 60.9731 71.4207 59.6818 73.0646 58.0539C74.7085 56.4259 76.0125 54.4933 76.9021 52.3663C77.7918 50.2393 78.2497 47.9596 78.2497 45.6574Z" fill="#82D0D8"/>
<path d="M87.9059 40.8762C87.8786 40.8762 87.8528 40.8762 87.8255 40.8762C87.4263 36.5208 85.3971 32.4706 82.1363 29.5213C78.8755 26.5719 74.619 24.9366 70.2028 24.9366C65.7867 24.9366 61.5301 26.5719 58.2693 29.5213C55.0086 32.4706 52.9793 36.5208 52.5802 40.8762C52.5528 40.8762 52.5271 40.8762 52.4997 40.8762C49.085 40.8762 45.8102 42.2195 43.3957 44.6105C40.9812 47.0016 39.6247 50.2446 39.6247 53.6262C39.6247 57.0077 40.9812 60.2507 43.3957 62.6418C45.8102 65.0329 49.085 66.3762 52.4997 66.3762H87.9059C91.3206 66.3762 94.5954 65.0329 97.0099 62.6418C99.4245 60.2507 100.781 57.0077 100.781 53.6262C100.781 50.2446 99.4245 47.0016 97.0099 44.6105C94.5954 42.2195 91.3206 40.8762 87.9059 40.8762Z" fill="#98DEEA"/>
<path d="M92.7341 61.5949H57.3278C55.0749 61.5968 52.861 61.0127 50.9076 59.9011C48.9542 58.7895 47.3299 57.1893 46.1972 55.2608C45.0645 53.3322 44.4632 51.1428 44.4533 48.9118C44.4435 46.6808 45.0254 44.4863 46.1411 42.548C43.6741 43.9399 41.7409 46.1003 40.6423 48.693C39.5438 51.2857 39.3415 54.1653 40.0669 56.8837C40.7923 59.6021 42.4047 62.0068 44.6533 63.7235C46.9019 65.4403 49.6604 66.3729 52.4997 66.3762H87.906C90.1802 66.3758 92.4137 65.7784 94.3788 64.6448C96.344 63.5112 97.9705 61.882 99.0927 59.9231C97.1563 61.0191 94.9645 61.5954 92.7341 61.5949Z" fill="#82D0D8"/>
<path d="M67.2308 65.4C67.2308 66.0365 67.48 66.647 67.9236 67.0971C68.3672 67.5471 68.9688 67.8 69.5962 67.8H75.1154C75.9518 67.8 76.754 68.1371 77.3455 68.7373C77.937 69.3374 78.2692 70.1513 78.2692 71C78.2692 71.8487 77.937 72.6626 77.3455 73.2627C76.754 73.8629 75.9518 74.2 75.1154 74.2H44.3654C43.738 74.2 43.1364 74.4529 42.6928 74.9029C42.2492 75.353 42 75.9635 42 76.6C42 77.2365 42.2492 77.847 42.6928 78.2971C43.1364 78.7471 43.738 79 44.3654 79H75.1154C77.2065 79 79.212 78.1571 80.6907 76.6569C82.1693 75.1566 83 73.1217 83 71C83 68.8783 82.1693 66.8434 80.6907 65.3431C79.212 63.8429 77.2065 63 75.1154 63H69.5962C68.9688 63 68.3672 63.2529 67.9236 63.7029C67.48 64.153 67.2308 64.7635 67.2308 65.4Z" fill="#D6E4E8"/>
<path d="M69.4444 98.6C69.4444 97.9635 69.6903 97.353 70.1279 96.9029C70.5654 96.4529 71.1589 96.2 71.7778 96.2H77.2222C78.0473 96.2 78.8387 95.8629 79.4221 95.2627C80.0056 94.6626 80.3333 93.8487 80.3333 93C80.3333 92.1513 80.0056 91.3374 79.4221 90.7373C78.8387 90.1371 78.0473 89.8 77.2222 89.8H59.3333C58.7145 89.8 58.121 89.5471 57.6834 89.0971C57.2458 88.647 57 88.0365 57 87.4C57 86.7635 57.2458 86.153 57.6834 85.7029C58.121 85.2529 58.7145 85 59.3333 85H77.2222C79.285 85 81.2633 85.8429 82.7219 87.3431C84.1806 88.8434 85 90.8783 85 93C85 95.1217 84.1806 97.1566 82.7219 98.6569C81.2633 100.157 79.285 101 77.2222 101H71.7778C71.1589 101 70.5654 100.747 70.1279 100.297C69.6903 99.847 69.4444 99.2365 69.4444 98.6Z" fill="#D6E4E8"/>
<path d="M36.25 91H24.75C21.5744 91 19 92.1193 19 93.5C19 94.8807 21.5744 96 24.75 96H36.25C39.4256 96 42 94.8807 42 93.5C42 92.1193 39.4256 91 36.25 91Z" fill="#D6E4E8"/>
<path d="M22.2308 72.95C22.2308 73.4672 22.401 73.9632 22.7039 74.3289C23.0068 74.6946 23.4177 74.9 23.8462 74.9H27.6154C28.1866 74.9 28.7345 75.1739 29.1384 75.6615C29.5423 76.1491 29.7692 76.8104 29.7692 77.5C29.7692 78.1896 29.5423 78.8509 29.1384 79.3385C28.7345 79.8261 28.1866 80.1 27.6154 80.1H6.61538C6.18696 80.1 5.77608 80.3054 5.47314 80.6711C5.17019 81.0368 5 81.5328 5 82.05C5 82.5672 5.17019 83.0632 5.47314 83.4289C5.77608 83.7946 6.18696 84 6.61538 84H27.6154C29.0435 84 30.4131 83.3152 31.4229 82.0962C32.4327 80.8772 33 79.2239 33 77.5C33 75.7761 32.4327 74.1228 31.4229 72.9038C30.4131 71.6848 29.0435 71 27.6154 71H23.8462C23.4177 71 23.0068 71.2054 22.7039 71.5711C22.401 71.9368 22.2308 72.4328 22.2308 72.95Z" fill="#D6E4E8"/>
<rect x="-18.5" y="-10.5" width="138.781" height="243.315" rx="4.5" stroke="#9747FF" stroke-dasharray="10 5"/>
</g>
<defs>
<clipPath id="clip0_1_15">
<rect width="103" height="111" fill="white"/>
</clipPath>
</defs>
</svg>
