<svg xmlns="http://www.w3.org/2000/svg" viewBox="0 0 64 64"><g id="Layer_31" data-name="Layer 31"><path d="M38.847,13.043a13.982,13.982,0,0,0-27.694,0A10.995,10.995,0,0,0,12,35H38a10.995,10.995,0,0,0,.847-21.957Z" style="fill:#7a838b"/><path d="M41,32H15A10.986,10.986,0,0,1,5.864,14.892,10.986,10.986,0,0,0,12,35H38a10.988,10.988,0,0,0,9.132-4.868A10.945,10.945,0,0,1,41,32Z" style="fill:#5d6972"/><path d="M49,24A10.994,10.994,0,0,0,38.847,13.043a13.941,13.941,0,0,0-.556-2.39A11,11,0,0,0,31.05,20c-.017,0-.033,0-.05,0a8,8,0,0,0-3.87,15H38A11,11,0,0,0,49,24Z" style="fill:#5d6972"/><path d="M55,21c-.017,0-.033,0-.05,0a10.995,10.995,0,0,0-21.9,0c-.017,0-.033,0-.05,0a8,8,0,0,0,0,16H55a8,8,0,0,0,0-16Z" style="fill:#7a838b"/><path d="M58,34H36a7.993,7.993,0,0,1-6.951-11.951A8,8,0,0,0,33,37H55a7.993,7.993,0,0,0,6.951-4.049A7.959,7.959,0,0,1,58,34Z" style="fill:#5d6972"/><path d="M45,29c0-2.209-5.82-4-13-4s-13,1.791-13,4c0,2,6.255,12.51,6.255,12.51a10.28,10.28,0,0,1,.981,3.139l.368,2.577a10.265,10.265,0,0,0,2.146,4.962A10.261,10.261,0,0,1,31,58.6V63l4.2-8.394A23.55,23.55,0,0,0,37.5,47a23.55,23.55,0,0,1,2.3-7.606S45,31,45,29Z" style="fill:#d6e4e8"/><ellipse cx="32" cy="29" rx="13" ry="4" style="fill:#baced3"/><path d="M43.279,57.721c1.059,1.06.639,3.2.639,3.2s-2.137.42-3.2-.639-.639-3.2-.639-3.2S42.219,56.662,43.279,57.721Z" style="fill:#6dbc53"/><path d="M16.279,39.721c1.059,1.06.639,3.2.639,3.2s-2.137.42-3.2-.639-.639-3.2-.639-3.2S15.219,38.662,16.279,39.721Z" style="fill:#6dbc53"/><path d="M20.721,55.721c-1.059,1.06-.639,3.2-.639,3.2s2.137.42,3.2-.639.639-3.2.639-3.2S21.781,54.662,20.721,55.721Z" style="fill:#6dbc53"/><path d="M47.721,41.911c-1.059,1.06-.639,3.2-.639,3.2s2.137.42,3.2-.639.639-3.2.639-3.2S48.781,40.852,47.721,41.911Z" style="fill:#6dbc53"/><path d="M40.69,37.92c-.53.89-.89,1.47-.89,1.47-.06.11-.11.23-.16.34a7.142,7.142,0,0,1,2.2.77,8.735,8.735,0,0,1-2.94.92A36.307,36.307,0,0,1,32,42a37.473,37.473,0,0,1-6.79-.55,9.524,9.524,0,0,1-3.05-.95,6.7,6.7,0,0,1,2.07-.74c-.3-.53-.65-1.14-1.03-1.81-1.83.52-3.2,1.32-3.2,2.55,0,1.82,2.99,2.7,6.03,3.11A44.922,44.922,0,0,0,32,44a44.418,44.418,0,0,0,6.19-.42c2.96-.43,5.81-1.3,5.81-3.08C44,39.25,42.57,38.44,40.69,37.92Z" style="fill:#baced3"/><path d="M37.27,48.47c-.13.66-.28,1.31-.47,1.95a8.089,8.089,0,0,1,1.93.58,8.981,8.981,0,0,1-2.3.65A25.928,25.928,0,0,1,32,52a27.554,27.554,0,0,1-3.55-.21A11.4,11.4,0,0,1,25.27,51a8.981,8.981,0,0,1,2.3-.65,10.616,10.616,0,0,1-.72-1.9C24.82,48.84,23,49.59,23,51c0,2.12,4.13,2.75,6.87,2.92.96.07,1.74.08,2.13.08a31.408,31.408,0,0,0,3.59-.21C38.13,53.5,41,52.77,41,51,41,49.62,39.25,48.87,37.27,48.47Z" style="fill:#baced3"/></g></svg>