<svg xmlns="http://www.w3.org/2000/svg" viewBox="0 0 64 64"><g id="Layer_31" data-name="Layer 31"><path d="M38.847,27.043a13.982,13.982,0,0,0-27.694,0A10.995,10.995,0,0,0,12,49H38a10.995,10.995,0,0,0,.847-21.957Z" style="fill:#98deea"/><path d="M41,46H15A10.986,10.986,0,0,1,5.864,28.892,10.986,10.986,0,0,0,12,49H38a10.988,10.988,0,0,0,9.132-4.868A10.945,10.945,0,0,1,41,46Z" style="fill:#82d0d8"/><path d="M49,38A10.994,10.994,0,0,0,38.847,27.043a13.941,13.941,0,0,0-.556-2.39A11,11,0,0,0,31.05,34c-.017,0-.033,0-.05,0a8,8,0,0,0-3.87,15H38A11,11,0,0,0,49,38Z" style="fill:#82d0d8"/><path d="M55,35c-.017,0-.033,0-.05,0a10.995,10.995,0,0,0-21.9,0c-.017,0-.033,0-.05,0a8,8,0,0,0,0,16H55a8,8,0,0,0,0-16Z" style="fill:#98deea"/><path d="M47,35h4a2,2,0,0,0,0-4H47a2,2,0,0,1-2-2V25.048c-.33-.03-.663-.048-1-.048a11,11,0,0,0-3,.419V29A6,6,0,0,0,47,35Z" style="fill:#82d0d8"/><path d="M58,48H36a7.993,7.993,0,0,1-6.951-11.951A8,8,0,0,0,33,51H55a7.993,7.993,0,0,0,6.951-4.049A7.959,7.959,0,0,1,58,48Z" style="fill:#82d0d8"/><circle cx="41" cy="15" r="2" style="fill:#62b5e8"/><path d="M55,19h0a2,2,0,0,0-2-2H49a6,6,0,0,0-6,6v4a6,6,0,0,0,6,6h4a2,2,0,0,0,2-2h0a2,2,0,0,0-2-2H49a2,2,0,0,1-2-2V23a2,2,0,0,1,2-2h4A2,2,0,0,0,55,19Z" style="fill:#62b5e8"/></g></svg>