<svg xmlns="http://www.w3.org/2000/svg" viewBox="0 0 64 64"><g id="Layer_31" data-name="Layer 31"><path d="M40,55v1a3,3,0,0,1-3,3h0a3,3,0,0,1-3-3V29H30V56a7,7,0,0,0,7,7h0a7,7,0,0,0,7-7V55a2,2,0,0,0-2-2h0A2,2,0,0,0,40,55Z" style="fill:#f8c460"/><path d="M30,38.053q2-.094,4,0V29H30Z" style="fill:#faaf42"/><path d="M63,37a21.248,21.248,0,0,0-18,0,43.245,43.245,0,0,0-26,0A21.248,21.248,0,0,0,1,37V36A31,31,0,0,1,32,5h0A31,31,0,0,1,63,36Z" style="fill:#98deea"/><path d="M33.5,5.038C33,5.014,32.5,5,32,5h0A31,31,0,0,0,1,36v1a24.43,24.43,0,0,1,3-1.1A31,31,0,0,1,33.5,5.038Z" style="fill:#82d0d8"/><path d="M41,9a4,4,0,0,1-8,0c0-2.209,4-8,4-8S41,6.791,41,9Z" style="fill:#62b5e8"/><path d="M36,8c0-1.177,1.135-3.368,2.2-5.161C37.527,1.765,37,1,37,1s-4,5.791-4,8a3.984,3.984,0,0,0,6.662,2.966A3.987,3.987,0,0,1,36,8Z" style="fill:#44a7d8"/><path d="M49,21a4,4,0,0,1-8,0c0-2.209,4-8,4-8S49,18.791,49,21Z" style="fill:#62b5e8"/><path d="M44,20c0-1.177,1.135-3.368,2.2-5.161C45.527,13.765,45,13,45,13s-4,5.791-4,8a3.984,3.984,0,0,0,6.662,2.966A3.987,3.987,0,0,1,44,20Z" style="fill:#44a7d8"/><path d="M57,11a4,4,0,0,1-8,0c0-2.209,4-8,4-8S57,8.791,57,11Z" style="fill:#62b5e8"/><path d="M52,10c0-1.177,1.135-3.368,2.2-5.161C53.527,3.765,53,3,53,3s-4,5.791-4,8a3.984,3.984,0,0,0,6.662,2.966A3.987,3.987,0,0,1,52,10Z" style="fill:#44a7d8"/></g></svg>