<svg xmlns="http://www.w3.org/2000/svg" viewBox="0 0 64 64"><g id="Layer_31" data-name="Layer 31"><path d="M32,9h0A26,26,0,0,0,6,35V46h4V35A22,22,0,0,1,32,13h0A22,22,0,0,1,54,35V46h4V35A26,26,0,0,0,32,9Z" style="fill:#62b5e8"/><path d="M32,13h0A22,22,0,0,0,10,35V46h4V35A18,18,0,0,1,32,17h0A18,18,0,0,1,50,35V46h4V35A22,22,0,0,0,32,13Z" style="fill:#f8c460"/><path d="M32,17h0A18,18,0,0,0,14,35V46h4V35A13.988,13.988,0,0,1,32,21h0A14,14,0,0,1,46,35V46h4V35A18,18,0,0,0,32,17Z" style="fill:#f96464"/><path d="M17.666,43.039a5.994,5.994,0,0,0-11.332,0A6,6,0,0,0,7,55H17a6,6,0,0,0,.666-11.961Z" style="fill:#98deea"/><path d="M20,52H10a5.964,5.964,0,0,1-5.457-8.45A5.986,5.986,0,0,0,7,55H17a6,6,0,0,0,5.466-3.534A5.974,5.974,0,0,1,20,52Z" style="fill:#82d0d8"/><path d="M57.666,43.039a5.994,5.994,0,0,0-11.332,0A6,6,0,0,0,47,55H57a6,6,0,0,0,.666-11.961Z" style="fill:#98deea"/><path d="M60,52H50a5.964,5.964,0,0,1-5.457-8.45A5.986,5.986,0,0,0,47,55H57a6,6,0,0,0,5.466-3.534A5.974,5.974,0,0,1,60,52Z" style="fill:#82d0d8"/></g></svg>