<svg xmlns="http://www.w3.org/2000/svg" viewBox="0 0 64 64"><g id="Layer_31" data-name="Layer 31"><path d="M51.216,48h0a1.339,1.339,0,0,1-1.229-1.88A13.117,13.117,0,0,0,51,38h3a13.481,13.481,0,0,1-1.609,9.318A1.337,1.337,0,0,1,51.216,48Z" style="fill:#f8c460"/><path d="M54,4H8V9.593a40,40,0,0,0,5.072,19.494L29.563,58.634A8.517,8.517,0,0,0,37,63h0l-1.112-4.448a20,20,0,0,1-.46-7.188l.463-3.938a30.006,30.006,0,0,1,7.437-16.5l3.029-3.385A30,30,0,0,0,54,7.538Z" style="fill:#d6e4e8"/><ellipse cx="31" cy="4" rx="23" ry="3" style="fill:#baced3"/><path d="M57,37a3.689,3.689,0,0,1-4,4,3.689,3.689,0,0,1-4-4c0-2.761,2.791-6,5-6S57,34.239,57,37Z" style="fill:#6dbc53"/><path d="M56,39a3.689,3.689,0,0,1-4-4,6.59,6.59,0,0,1,1.617-3.966C51.482,31.37,49,34.4,49,37a3.689,3.689,0,0,0,4,4,3.716,3.716,0,0,0,3.6-2.043A5.534,5.534,0,0,1,56,39Z" style="fill:#62a94b"/><path d="M20.579,52.581h0a1.393,1.393,0,0,0-.492-2.306,13.962,13.962,0,0,1-6.893-5.269L10.93,47.231a14.383,14.383,0,0,0,8.247,5.715A1.446,1.446,0,0,0,20.579,52.581Z" style="fill:#f8c460"/><path d="M7.911,48.713a3.982,3.982,0,0,0,6.038,0,3.824,3.824,0,0,0,0-5.931c-2.084-2.047-6.635-2.379-8.3-.741S5.827,46.666,7.911,48.713Z" style="fill:#6dbc53"/><path d="M14.949,45.714a3.984,3.984,0,0,1-6.038,0,10.582,10.582,0,0,1-2.742-4.062,2.807,2.807,0,0,0-.523.388c-1.667,1.638.18,4.626,2.265,6.674a3.984,3.984,0,0,0,6.038,0A4.069,4.069,0,0,0,15.326,45.3C15.208,45.442,15.084,45.581,14.949,45.714Z" style="fill:#62a94b"/><path d="M48.959,10.355A1,1,0,0,0,47.7,9.706C45.31,10.468,38.444,11,31.006,11s-14.3-.532-16.7-1.294a1,1,0,1,0-.607,1.906c2.649.843,9.441,1.388,17.3,1.388s14.655-.545,17.3-1.388A1,1,0,0,0,48.959,10.355Z" style="fill:#baced3"/><path d="M26.012,25q-1.529-.009-2.981-.047a1,1,0,0,0-.05,2c.978.025,1.988.041,3.019.047h.006a1,1,0,0,0,.006-2Z" style="fill:#baced3"/><path d="M41,19.668a1.01,1.01,0,0,0-1.062-.934,153.1,153.1,0,0,1-17.872,0,1.019,1.019,0,0,0-1.062.934,1,1,0,0,0,.934,1.062c2.748.177,5.883.27,9.064.27s6.316-.093,9.064-.27A1,1,0,0,0,41,19.668Z" style="fill:#baced3"/><path d="M46.408,18.018c-.685.132-1.532.257-2.518.373a1,1,0,0,0,.115,1.993.945.945,0,0,0,.118-.007c1.034-.121,1.93-.254,2.664-.4a1,1,0,0,0-.379-1.963Z" style="fill:#baced3"/><path d="M13,25a1,1,0,0,0,.372-1.929L7.143,20.58A4.977,4.977,0,0,1,4,15.938V15a1,1,0,0,0-2,0v.938a6.969,6.969,0,0,0,4.4,6.5l6.228,2.491A1,1,0,0,0,13,25Z" style="fill:#baced3"/><path d="M61,13a1,1,0,0,0-1,1,1.561,1.561,0,0,1-1.183,1.516l-2.059.514A1,1,0,0,0,57,18a1.01,1.01,0,0,0,.243-.03l2.06-.515A3.554,3.554,0,0,0,62,14,1,1,0,0,0,61,13Z" style="fill:#baced3"/><path d="M17,31a1,1,0,0,0,.316-1.948l-9-3a1,1,0,1,0-.632,1.9l9,3A1,1,0,0,0,17,31Z" style="fill:#baced3"/><path d="M25,41H23a11.069,11.069,0,0,1-6.6-2.2l-.8-.6a1,1,0,1,0-1.2,1.6l.8.6A13.077,13.077,0,0,0,23,43h2a1,1,0,0,0,0-2Z" style="fill:#baced3"/><path d="M43.293,36.293A5.791,5.791,0,0,1,39.171,38H36a1,1,0,0,0,0,2h3.171a7.777,7.777,0,0,0,5.536-2.293,1,1,0,0,0-1.414-1.414Z" style="fill:#baced3"/><path d="M59,8a1,1,0,0,0-2,0,4.794,4.794,0,0,1-3.1,4.468l-4.255,1.6A1,1,0,0,0,50,16a1.029,1.029,0,0,0,.351-.063l4.255-1.6A6.805,6.805,0,0,0,59,8Z" style="fill:#baced3"/></g></svg>