<svg xmlns="http://www.w3.org/2000/svg" viewBox="0 0 64 64"><g id="Layer_31" data-name="Layer 31"><circle cx="42" cy="12" r="7" style="fill:#f8c460"/><path d="M45,16A6.993,6.993,0,0,1,38.786,5.786a7,7,0,1,0,9.428,9.428A6.964,6.964,0,0,1,45,16Z" style="fill:#faaf42"/><path d="M27,44.074V7a6,6,0,0,0-6-6h0a6,6,0,0,0-6,6V44.073a1.924,1.924,0,0,1-.622,1.448,10,10,0,1,0,13.249.005A1.935,1.935,0,0,1,27,44.074Z" style="fill:#d6e4e8"/><path d="M14.1,54.422a9.968,9.968,0,0,1,3.279-8.9A1.924,1.924,0,0,0,18,44.073V7a6,6,0,0,1,4.5-5.8A5.978,5.978,0,0,0,15,7V44.073a1.924,1.924,0,0,1-.622,1.448,9.99,9.99,0,0,0,5.454,17.413,10.171,10.171,0,0,0,2.644-.056A10.028,10.028,0,0,1,14.1,54.422Z" style="fill:#baced3"/><path d="M23,49.555V13a2,2,0,0,0-2-2h0a2,2,0,0,0-2,2V49.555a4,4,0,1,0,4,0Z" style="fill:#f96464"/><path d="M42,3a1,1,0,0,0,1-1V1a1,1,0,0,0-2,0V2A1,1,0,0,0,42,3Z" style="fill:#f8c460"/><path d="M34.222,5.636a1,1,0,0,0,1.414-1.414l-.707-.707a1,1,0,0,0-1.414,1.414Z" style="fill:#f8c460"/><path d="M32,11H31a1,1,0,0,0,0,2h1a1,1,0,0,0,0-2Z" style="fill:#f8c460"/><path d="M34.222,18.364l-.707.707a1,1,0,1,0,1.414,1.414l.707-.707a1,1,0,1,0-1.414-1.414Z" style="fill:#f8c460"/><path d="M42,21a1,1,0,0,0-1,1v1a1,1,0,0,0,2,0V22A1,1,0,0,0,42,21Z" style="fill:#f8c460"/><path d="M49.778,18.364a1,1,0,1,0-1.414,1.414l.707.707a1,1,0,0,0,1.414-1.414Z" style="fill:#f8c460"/><path d="M53,11H52a1,1,0,0,0,0,2h1a1,1,0,0,0,0-2Z" style="fill:#f8c460"/><path d="M49.071,3.515l-.707.707a1,1,0,1,0,1.414,1.414l.707-.707a1,1,0,0,0-1.414-1.414Z" style="fill:#f8c460"/><path d="M27,7V8H25a1,1,0,0,1,0-2h1.91A5.47,5.47,0,0,1,27,7Z" style="fill:#d6e4e8"/><path d="M25,13h2v2H25a1,1,0,0,1,0-2Z" style="fill:#d6e4e8"/><path d="M25,20h2v2H25a1,1,0,0,1,0-2Z" style="fill:#d6e4e8"/><path d="M25,28h2v2H25a1,1,0,0,1,0-2Z" style="fill:#d6e4e8"/><path d="M25,35h2v2H25a1,1,0,0,1,0-2Z" style="fill:#d6e4e8"/><path d="M25,42h2v2H25a1,1,0,0,1,0-2Z" style="fill:#d6e4e8"/><path d="M27,35v2H25a1,1,0,0,1,0-2Z" style="fill:#f96464"/><path d="M27,42v2H25a1,1,0,0,1,0-2Z" style="fill:#f96464"/><path d="M27,28v2H25a1,1,0,0,1,0-2Z" style="fill:#f96464"/><path d="M27,13v2H25a1,1,0,0,1,0-2Z" style="fill:#f96464"/><path d="M27,7V8H25a1,1,0,0,1,0-2h1.91A5.47,5.47,0,0,1,27,7Z" style="fill:#f96464"/><path d="M27,20v2H25a1,1,0,0,1,0-2Z" style="fill:#f96464"/></g></svg>