<svg xmlns="http://www.w3.org/2000/svg" viewBox="0 0 64 64"><g id="Layer_31" data-name="Layer 31"><path d="M29,44.074V7a6,6,0,0,0-6-6h0a6,6,0,0,0-6,6V44.073a1.924,1.924,0,0,1-.622,1.448,10,10,0,1,0,13.249.005A1.935,1.935,0,0,1,29,44.074Z" style="fill:#d6e4e8"/><path d="M25,49.555V42a2,2,0,0,0-2-2h0a2,2,0,0,0-2,2v7.555a4,4,0,1,0,4,0Z" style="fill:#f96464"/><path d="M16.1,54.422a9.968,9.968,0,0,1,3.279-8.9A1.924,1.924,0,0,0,20,44.073V7a6,6,0,0,1,4.5-5.8A5.978,5.978,0,0,0,17,7V44.073a1.924,1.924,0,0,1-.622,1.448,9.99,9.99,0,0,0,5.454,17.413,10.171,10.171,0,0,0,2.644-.056A10.028,10.028,0,0,1,16.1,54.422Z" style="fill:#baced3"/><path d="M51.485,15.126l-2.309-1.283,1.833-.472a1,1,0,1,0-.5-1.937l-3.873,1L44.059,11l2.577-1.432,3.873,1a.988.988,0,0,0,.251.032,1,1,0,0,0,.249-1.969l-1.833-.472,2.309-1.283a1,1,0,1,0-.97-1.748l-2.41,1.339.5-1.794a1,1,0,1,0-1.925-.537l-1.03,3.695L43,9.3V6.426l2.812-2.7a1,1,0,0,0-1.387-1.442L43,3.65V1a1,1,0,0,0-2,0V3.65L39.575,2.279a1,1,0,0,0-1.387,1.442L41,6.426V9.3L38.351,7.829l-1.03-3.695a1,1,0,1,0-1.925.537l.5,1.794-2.41-1.339a1,1,0,1,0-.97,1.748l2.309,1.283-1.833.472A1,1,0,0,0,33.24,10.6a.988.988,0,0,0,.251-.032l3.873-1L39.941,11l-2.577,1.432-3.873-1a1,1,0,1,0-.5,1.937l1.833.472-2.309,1.283A1,1,0,0,0,33,17a.985.985,0,0,0,.484-.126l2.41-1.339-.5,1.794a1,1,0,1,0,1.925.537l1.03-3.695L41,12.7v2.875l-2.812,2.705a1,1,0,0,0,1.387,1.442L41,18.35V21a1,1,0,0,0,2,0V18.35l1.425,1.371a1,1,0,0,0,1.387-1.442L43,15.574V12.7l2.649,1.472,1.03,3.7a1,1,0,1,0,1.925-.537l-.5-1.794,2.41,1.339A.985.985,0,0,0,51,17a1,1,0,0,0,.486-1.874Z" style="fill:#d6e4e8"/><path d="M29,7V8H27a1,1,0,0,1,0-2h1.91A5.47,5.47,0,0,1,29,7Z" style="fill:#d6e4e8"/><path d="M27,13h2v2H27a1,1,0,0,1,0-2Z" style="fill:#d6e4e8"/><path d="M27,20h2v2H27a1,1,0,0,1,0-2Z" style="fill:#d6e4e8"/><path d="M27,28h2v2H27a1,1,0,0,1,0-2Z" style="fill:#d6e4e8"/><path d="M27,35h2v2H27a1,1,0,0,1,0-2Z" style="fill:#d6e4e8"/><path d="M27,42h2v2H27a1,1,0,0,1,0-2Z" style="fill:#d6e4e8"/><path d="M29,35v2H27a1,1,0,0,1,0-2Z" style="fill:#f96464"/><path d="M29,42v2H27a1,1,0,0,1,0-2Z" style="fill:#f96464"/><path d="M29,28v2H27a1,1,0,0,1,0-2Z" style="fill:#f96464"/><path d="M29,13v2H27a1,1,0,0,1,0-2Z" style="fill:#f96464"/><path d="M29,7V8H27a1,1,0,0,1,0-2h1.91A5.47,5.47,0,0,1,29,7Z" style="fill:#f96464"/><path d="M29,20v2H27a1,1,0,0,1,0-2Z" style="fill:#f96464"/></g></svg>