<svg xmlns="http://www.w3.org/2000/svg" viewBox="0 0 64 64">
    <g id="Layer_31" data-name="Layer 31">
        <path class="rainDrop" d="M10.855,43h0A1.792,1.792,0,0,1,9.2,40.411l2.29-4.422A1.861,1.861,0,0,1,13.145,35h0A1.792,1.792,0,0,1,14.8,37.589l-2.29,4.422A1.861,1.861,0,0,1,10.855,43Z" style="fill:#62b5e8"/>
        <path class="rainDrop" d="M30.855,43h0A1.792,1.792,0,0,1,29.2,40.411l2.29-4.422A1.861,1.861,0,0,1,33.145,35h0A1.792,1.792,0,0,1,34.8,37.589l-2.29,4.422A1.861,1.861,0,0,1,30.855,43Z" style="fill:#62b5e8"/>
        <path class="rainDrop" d="M50.855,43h0A1.792,1.792,0,0,1,49.2,40.411l2.29-4.422A1.861,1.861,0,0,1,53.145,35h0A1.792,1.792,0,0,1,54.8,37.589l-2.29,4.422A1.861,1.861,0,0,1,50.855,43Z" style="fill:#62b5e8"/>
        <path class="rainDrop" d="M10.855,63h0A1.792,1.792,0,0,1,9.2,60.411l2.29-4.422A1.861,1.861,0,0,1,13.145,55h0A1.792,1.792,0,0,1,14.8,57.589l-2.29,4.422A1.861,1.861,0,0,1,10.855,63Z" style="fill:#62b5e8"/>
        <path class="rainDrop" d="M30.855,63h0A1.792,1.792,0,0,1,29.2,60.411l2.29-4.422A1.861,1.861,0,0,1,33.145,55h0A1.792,1.792,0,0,1,34.8,57.589l-2.29,4.422A1.861,1.861,0,0,1,30.855,63Z" style="fill:#62b5e8"/>
        <path class="rainDrop" d="M50.855,63h0A1.792,1.792,0,0,1,49.2,60.411l2.29-4.422A1.861,1.861,0,0,1,53.145,55h0A1.792,1.792,0,0,1,54.8,57.589l-2.29,4.422A1.861,1.861,0,0,1,50.855,63Z" style="fill:#62b5e8"/>
        <path class="rainDrop" d="M20.855,53h0A1.792,1.792,0,0,1,19.2,50.411l2.29-4.422A1.861,1.861,0,0,1,23.145,45h0A1.792,1.792,0,0,1,24.8,47.589l-2.29,4.422A1.861,1.861,0,0,1,20.855,53Z" style="fill:#62b5e8"/>
        <path class="rainDrop" d="M40.855,53h0A1.792,1.792,0,0,1,39.2,50.411l2.29-4.422A1.861,1.861,0,0,1,43.145,45h0A1.792,1.792,0,0,1,44.8,47.589l-2.29,4.422A1.861,1.861,0,0,1,40.855,53Z" style="fill:#62b5e8"/>
        <path d="M38.847,13.043a13.982,13.982,0,0,0-27.694,0A10.995,10.995,0,0,0,12,35H38a10.995,10.995,0,0,0,.847-21.957Z" style="fill:#7a838b"/>
        <path d="M41,32H15A10.986,10.986,0,0,1,5.864,14.892,10.986,10.986,0,0,0,12,35H38a10.988,10.988,0,0,0,9.132-4.868A10.945,10.945,0,0,1,41,32Z" style="fill:#5d6972"/>
        <path d="M49,24A10.994,10.994,0,0,0,38.847,13.043a13.941,13.941,0,0,0-.556-2.39A11,11,0,0,0,31.05,20c-.017,0-.033,0-.05,0a8,8,0,0,0-3.87,15H38A11,11,0,0,0,49,24Z" style="fill:#5d6972"/>
        <path d="M55,21c-.017,0-.033,0-.05,0a10.995,10.995,0,0,0-21.9,0c-.017,0-.033,0-.05,0a8,8,0,0,0,0,16H55a8,8,0,0,0,0-16Z" style="fill:#7a838b"/>
        <path d="M58,34H36a7.993,7.993,0,0,1-6.951-11.951A8,8,0,0,0,33,37H55a7.993,7.993,0,0,0,6.951-4.049A7.959,7.959,0,0,1,58,34Z" style="fill:#5d6972"/>
    </g>
    <style>
        .rainDrop{
            animation: rain 1.5s  linear infinite;
        
        }
        @keyframes rain{
            
            0%{
                transform:translate(0px,-8px);
            }
           
            100%{
                
                transform:translate(-4px,0px);
                opacity:0.5;
                
            }
        }
    </style>
</svg>