<svg xmlns="http://www.w3.org/2000/svg" viewBox="0 0 64 64"><g id="Layer_31" data-name="Layer 31"><path d="M29,44.074V7a6,6,0,0,0-6-6h0a6,6,0,0,0-6,6V44.073a1.924,1.924,0,0,1-.622,1.448,10,10,0,1,0,13.249.005A1.935,1.935,0,0,1,29,44.074Z" style="fill:#d6e4e8"/><path d="M25,49.555V20a2,2,0,0,0-2-2h0a2,2,0,0,0-2,2V49.555a4,4,0,1,0,4,0Z" style="fill:#f96464"/><circle cx="37" cy="3" r="2" style="fill:#62b5e8"/><path d="M51,7h0a2,2,0,0,0-2-2H45a6,6,0,0,0-6,6v4a6,6,0,0,0,6,6h4a2,2,0,0,0,2-2h0a2,2,0,0,0-2-2H45a2,2,0,0,1-2-2V11a2,2,0,0,1,2-2h4A2,2,0,0,0,51,7Z" style="fill:#62b5e8"/><path d="M16.1,54.422a9.968,9.968,0,0,1,3.279-8.9A1.924,1.924,0,0,0,20,44.073V7a6,6,0,0,1,4.5-5.8A5.978,5.978,0,0,0,17,7V44.073a1.924,1.924,0,0,1-.622,1.448,9.99,9.99,0,0,0,5.454,17.413,10.171,10.171,0,0,0,2.644-.056A10.028,10.028,0,0,1,16.1,54.422Z" style="fill:#baced3"/><path d="M29,7V8H27a1,1,0,0,1,0-2h1.91A5.47,5.47,0,0,1,29,7Z" style="fill:#d6e4e8"/><path d="M27,13h2v2H27a1,1,0,0,1,0-2Z" style="fill:#d6e4e8"/><path d="M27,20h2v2H27a1,1,0,0,1,0-2Z" style="fill:#d6e4e8"/><path d="M27,28h2v2H27a1,1,0,0,1,0-2Z" style="fill:#d6e4e8"/><path d="M27,35h2v2H27a1,1,0,0,1,0-2Z" style="fill:#d6e4e8"/><path d="M27,42h2v2H27a1,1,0,0,1,0-2Z" style="fill:#d6e4e8"/><path d="M29,35v2H27a1,1,0,0,1,0-2Z" style="fill:#f96464"/><path d="M29,42v2H27a1,1,0,0,1,0-2Z" style="fill:#f96464"/><path d="M29,28v2H27a1,1,0,0,1,0-2Z" style="fill:#f96464"/><path d="M29,13v2H27a1,1,0,0,1,0-2Z" style="fill:#f96464"/><path d="M29,7V8H27a1,1,0,0,1,0-2h1.91A5.47,5.47,0,0,1,29,7Z" style="fill:#f96464"/><path d="M29,20v2H27a1,1,0,0,1,0-2Z" style="fill:#f96464"/></g></svg>