<svg xmlns="http://www.w3.org/2000/svg" viewBox="0 0 64 64"><g id="Layer_31" data-name="Layer 31"><path d="M38.847,13.043a13.982,13.982,0,0,0-27.694,0A10.995,10.995,0,0,0,12,35H38a10.995,10.995,0,0,0,.847-21.957Z" style="fill:#7a838b"/><path d="M49,24A10.994,10.994,0,0,0,38.847,13.043a13.941,13.941,0,0,0-.556-2.39A11,11,0,0,0,31.05,20c-.017,0-.033,0-.05,0a8,8,0,0,0-3.87,15H38A11,11,0,0,0,49,24Z" style="fill:#5d6972"/><path d="M41,32H15A10.986,10.986,0,0,1,5.864,14.892,10.986,10.986,0,0,0,12,35H38a10.988,10.988,0,0,0,9.132-4.868A10.945,10.945,0,0,1,41,32Z" style="fill:#5d6972"/><path d="M55,21c-.017,0-.033,0-.05,0a10.995,10.995,0,0,0-21.9,0c-.017,0-.033,0-.05,0a8,8,0,0,0,0,16H55a8,8,0,0,0,0-16Z" style="fill:#7a838b"/><path d="M58,34H36a7.993,7.993,0,0,1-6.951-11.951A8,8,0,0,0,33,37H55a7.993,7.993,0,0,0,6.951-4.049A7.959,7.959,0,0,1,58,34Z" style="fill:#5d6972"/><polygon points="38 43 34 43 38 31 29 31 26 47 31 47 28 63 38 43" style="fill:#f8c460"/><polygon points="32 31 29 31 26 47 29 47 32 31" style="fill:#faaf42"/><polygon points="34 47 31 47 28 63 32.8 53.4 34 47" style="fill:#faaf42"/><polygon points="18 45 15 45 19 35 12 35 9 49 12 49 10 59 18 45" style="fill:#f8c460"/><polygon points="12 35 9 49 12 49 15 35 12 35" style="fill:#faaf42"/><polygon points="14.615 50.923 15 49 12 49 10 59 14.615 50.923" style="fill:#faaf42"/><polygon points="54 45 51 45 55 35 48 35 45 49 48 49 46 59 54 45" style="fill:#f8c460"/><polygon points="48 35 45 49 48 49 51 35 48 35" style="fill:#faaf42"/><polygon points="50.615 50.923 51 49 48 49 46 59 50.615 50.923" style="fill:#faaf42"/></g></svg>