<svg xmlns="http://www.w3.org/2000/svg" viewBox="0 0 64 64"><g id="Layer_31" data-name="Layer 31"><path d="M38.847,15.043a13.982,13.982,0,0,0-27.694,0A10.995,10.995,0,0,0,12,37H38a10.995,10.995,0,0,0,.847-21.957Z" style="fill:#98deea"/><path d="M49,26A10.994,10.994,0,0,0,38.847,15.043a13.941,13.941,0,0,0-.556-2.39A11,11,0,0,0,31.05,22c-.017,0-.033,0-.05,0a8,8,0,0,0-3.87,15H38A11,11,0,0,0,49,26Z" style="fill:#82d0d8"/><path d="M41,34H15A10.986,10.986,0,0,1,5.864,16.892,10.986,10.986,0,0,0,12,37H38a10.988,10.988,0,0,0,9.132-4.868A10.945,10.945,0,0,1,41,34Z" style="fill:#82d0d8"/><path d="M55,23c-.017,0-.033,0-.05,0a10.995,10.995,0,0,0-21.9,0c-.017,0-.033,0-.05,0a8,8,0,0,0,0,16H55a8,8,0,0,0,0-16Z" style="fill:#98deea"/><path d="M58,36H36a7.993,7.993,0,0,1-6.951-11.951A8,8,0,0,0,33,39H55a7.993,7.993,0,0,0,6.951-4.049A7.959,7.959,0,0,1,58,36Z" style="fill:#82d0d8"/><path d="M39,38.5h0A1.5,1.5,0,0,0,40.5,40H44a2,2,0,0,1,2,2h0a2,2,0,0,1-2,2H22.5A1.5,1.5,0,0,0,21,45.5h0A1.5,1.5,0,0,0,22.5,47H44a5,5,0,0,0,5-5h0a5,5,0,0,0-5-5H40.5A1.5,1.5,0,0,0,39,38.5Z" style="fill:#d6e4e8"/><path d="M45,59.5h0A1.5,1.5,0,0,1,46.5,58H50a2,2,0,0,0,2-2h0a2,2,0,0,0-2-2H10.5A1.5,1.5,0,0,1,9,52.5H9A1.5,1.5,0,0,1,10.5,51H50a5,5,0,0,1,5,5h0a5,5,0,0,1-5,5H46.5A1.5,1.5,0,0,1,45,59.5Z" style="fill:#d6e4e8"/><rect x="9" y="44" width="8" height="3" rx="1.5" style="fill:#d6e4e8"/><rect x="31" y="58" width="8" height="3" rx="1.5" style="fill:#d6e4e8"/></g></svg>