<svg xmlns="http://www.w3.org/2000/svg" viewBox="0 0 64 64"><g id="Layer_31" data-name="Layer 31"><path d="M38.847,13.043a13.982,13.982,0,0,0-27.694,0A10.995,10.995,0,0,0,12,35H38a10.995,10.995,0,0,0,.847-21.957Z" style="fill:#7a838b"/><path d="M49,24A10.994,10.994,0,0,0,38.847,13.043a13.941,13.941,0,0,0-.556-2.39A11,11,0,0,0,31.05,20c-.017,0-.033,0-.05,0a8,8,0,0,0-3.87,15H38A11,11,0,0,0,49,24Z" style="fill:#5d6972"/><path d="M41,32H15A10.986,10.986,0,0,1,5.864,14.892,10.986,10.986,0,0,0,12,35H38a10.988,10.988,0,0,0,9.132-4.868A10.945,10.945,0,0,1,41,32Z" style="fill:#5d6972"/><path d="M55,21c-.017,0-.033,0-.05,0a10.995,10.995,0,0,0-21.9,0c-.017,0-.033,0-.05,0a8,8,0,0,0,0,16H55a8,8,0,0,0,0-16Z" style="fill:#7a838b"/><path d="M58,34H36a7.993,7.993,0,0,1-6.951-11.951A8,8,0,0,0,33,37H55a7.993,7.993,0,0,0,6.951-4.049A7.959,7.959,0,0,1,58,34Z" style="fill:#5d6972"/><polygon points="38 41 34 41 38 29 29 29 26 45 31 45 28 61 38 41" style="fill:#f8c460"/><path d="M17.855,43h0A1.792,1.792,0,0,1,16.2,40.411l2.29-4.422A1.861,1.861,0,0,1,20.145,35h0A1.792,1.792,0,0,1,21.8,37.589l-2.29,4.422A1.861,1.861,0,0,1,17.855,43Z" style="fill:#62b5e8"/><path d="M8.855,53h0A1.792,1.792,0,0,1,7.2,50.411l2.29-4.422A1.861,1.861,0,0,1,11.145,45h0A1.792,1.792,0,0,1,12.8,47.589l-2.29,4.422A1.861,1.861,0,0,1,8.855,53Z" style="fill:#62b5e8"/><path d="M13.855,63h0A1.792,1.792,0,0,1,12.2,60.411l2.29-4.422A1.861,1.861,0,0,1,16.145,55h0A1.792,1.792,0,0,1,17.8,57.589l-2.29,4.422A1.861,1.861,0,0,1,13.855,63Z" style="fill:#62b5e8"/><path d="M47.855,43h0A1.792,1.792,0,0,1,46.2,40.411l2.29-4.422A1.861,1.861,0,0,1,50.145,35h0A1.792,1.792,0,0,1,51.8,37.589l-2.29,4.422A1.861,1.861,0,0,1,47.855,43Z" style="fill:#62b5e8"/><path d="M52.855,53h0A1.792,1.792,0,0,1,51.2,50.411l2.29-4.422A1.861,1.861,0,0,1,55.145,45h0A1.792,1.792,0,0,1,56.8,47.589l-2.29,4.422A1.861,1.861,0,0,1,52.855,53Z" style="fill:#62b5e8"/><path d="M43.855,63h0A1.792,1.792,0,0,1,42.2,60.411l2.29-4.422A1.861,1.861,0,0,1,46.145,55h0A1.792,1.792,0,0,1,47.8,57.589l-2.29,4.422A1.861,1.861,0,0,1,43.855,63Z" style="fill:#62b5e8"/><polygon points="32 29 29 29 26 45 29 45 32 29" style="fill:#faaf42"/><polygon points="34 45 31 45 28 61 32.8 51.4 34 45" style="fill:#faaf42"/></g></svg>