<svg xmlns="http://www.w3.org/2000/svg" viewBox="0 0 64 64"><g id="Layer_31" data-name="Layer 31"><circle cx="44" cy="20" r="13" style="fill:#f8c460"/><path d="M42.515,32.917a13,13,0,0,0,12.839-6.593A10.988,10.988,0,0,0,45,19h-.066A8.39,8.39,0,0,1,37.725,15.4a14.072,14.072,0,0,0-3.631-3.8,12.991,12.991,0,0,0,8.421,21.324Z" style="fill:#faaf42"/><path d="M38.847,23.043a13.982,13.982,0,0,0-27.694,0A10.995,10.995,0,0,0,12,45H38a10.995,10.995,0,0,0,.847-21.957Z" style="fill:#98deea"/><path d="M41,42H15A10.986,10.986,0,0,1,5.864,24.892,10.986,10.986,0,0,0,12,45H38a10.988,10.988,0,0,0,9.132-4.868A10.945,10.945,0,0,1,41,42Z" style="fill:#82d0d8"/><path d="M49,34A10.994,10.994,0,0,0,38.847,23.043a13.941,13.941,0,0,0-.556-2.39A11,11,0,0,0,31.05,30c-.017,0-.033,0-.05,0a8,8,0,0,0-3.87,15H38A11,11,0,0,0,49,34Z" style="fill:#82d0d8"/><path d="M55,31c-.017,0-.033,0-.05,0a10.995,10.995,0,0,0-21.9,0c-.017,0-.033,0-.05,0a8,8,0,0,0,0,16H55a8,8,0,0,0,0-16Z" style="fill:#98deea"/><circle cx="17" cy="41" r="2" style="fill:#d6e4e8"/><circle cx="11" cy="51" r="2" style="fill:#d6e4e8"/><circle cx="17" cy="61" r="2" style="fill:#d6e4e8"/><circle cx="47" cy="41" r="2" style="fill:#d6e4e8"/><circle cx="53" cy="51" r="2" style="fill:#d6e4e8"/><path d="M58,44H36a7.993,7.993,0,0,1-6.951-11.951A8,8,0,0,0,33,47H55a7.993,7.993,0,0,0,6.951-4.049A7.959,7.959,0,0,1,58,44Z" style="fill:#82d0d8"/><circle cx="47" cy="61" r="2" style="fill:#d6e4e8"/><path d="M44,4.994a1,1,0,0,0,1-1v-2a1,1,0,0,0-2,0v2A1,1,0,0,0,44,4.994Z" style="fill:#f8c460"/><path d="M60,21h2a1,1,0,0,0,0-2H60a1,1,0,0,0,0,2Z" style="fill:#f8c460"/><path d="M56,9.945a.993.993,0,0,0,.707-.293l1.414-1.414a1,1,0,1,0-1.414-1.414L55.293,8.238A1,1,0,0,0,56,9.945Z" style="fill:#f8c460"/><path d="M31.251,9.652a1,1,0,0,0,1.414-1.414L31.251,6.824a1,1,0,0,0-1.414,1.414Z" style="fill:#f8c460"/><path d="M41.874,45.514a1,1,0,0,0-1.36-.388L38.1,46.464l.5-1.794a1,1,0,1,0-1.926-.536l-1.029,3.7L33,49.3V46.426l2.811-2.705a1,1,0,0,0-1.387-1.442L33,43.65V41a1,1,0,0,0-2,0v2.65l-1.424-1.371a1,1,0,0,0-1.387,1.442L31,46.426V49.3l-2.649-1.472-1.029-3.695a1,1,0,1,0-1.926.536l.5,1.794-2.409-1.338a1,1,0,0,0-.972,1.748l2.31,1.283-1.832.473a1,1,0,0,0,.249,1.968.986.986,0,0,0,.25-.032l3.872-1L29.941,51l-2.578,1.432-3.872-1a1,1,0,1,0-.5,1.936l1.832.473-2.31,1.283a1,1,0,0,0,.972,1.748L25.9,55.536l-.5,1.794a1,1,0,0,0,.7,1.232,1.036,1.036,0,0,0,.268.037,1,1,0,0,0,.963-.733l1.029-3.695L31,52.7v2.875l-2.811,2.705a1,1,0,0,0,1.387,1.442L31,58.35V61a1,1,0,0,0,2,0V58.35l1.424,1.371a1,1,0,0,0,1.387-1.442L33,55.574V52.7l2.649,1.472,1.029,3.7a1,1,0,0,0,.963.733,1.036,1.036,0,0,0,.268-.037,1,1,0,0,0,.7-1.232l-.5-1.794,2.409,1.338a1,1,0,0,0,.972-1.748l-2.31-1.283,1.832-.473a1,1,0,1,0-.5-1.936l-3.872,1L34.059,51l2.578-1.432,3.872,1a.943.943,0,0,0,.25.032,1,1,0,0,0,.249-1.968l-1.832-.473,2.31-1.283A1,1,0,0,0,41.874,45.514Z" style="fill:#d6e4e8"/></g></svg>