<svg xmlns="http://www.w3.org/2000/svg" viewBox="0 0 64 64"><g id="Layer_31" data-name="Layer 31"><circle cx="32" cy="32" r="19" style="fill:#f8c460"/><path d="M51,32a18.954,18.954,0,0,0-7.069-14.777,10,10,0,0,0-7.769,8.029A7,7,0,0,0,38,39H49.652A18.934,18.934,0,0,0,51,32Z" style="fill:#faaf42"/><path d="M13.066,33.308A18.978,18.978,0,0,0,31.749,50.987a6.988,6.988,0,0,0-3.911-10.735,9.983,9.983,0,0,0-14.772-6.944Z" style="fill:#faaf42"/><path d="M25.838,41.252a9.99,9.99,0,0,0-19.676,0A7,7,0,0,0,8,55H24a7,7,0,0,0,1.838-13.748Z" style="fill:#98deea"/><path d="M27,52H11a7,7,0,0,1-7-7,6.93,6.93,0,0,1,.781-3.187A6.982,6.982,0,0,0,8,55H24a6.994,6.994,0,0,0,6.214-3.786A6.964,6.964,0,0,1,27,52Z" style="fill:#82d0d8"/><path d="M57.838,26.252a9.99,9.99,0,0,0-19.676,0A7,7,0,0,0,40,40H56a7,7,0,0,0,1.838-13.748Z" style="fill:#98deea"/><path d="M59,37H43a7,7,0,0,1-7-7,6.93,6.93,0,0,1,.781-3.187A6.982,6.982,0,0,0,40,40H56a6.994,6.994,0,0,0,6.214-3.786A6.964,6.964,0,0,1,59,37Z" style="fill:#82d0d8"/><path d="M32,10a1,1,0,0,0,1-1V7a1,1,0,1,0-2,0V9A1,1,0,0,0,32,10Z" style="fill:#f8c460"/><path d="M15.029,16.445a1,1,0,0,0,1.414-1.414l-1.414-1.414a1,1,0,0,0-1.414,1.414Z" style="fill:#f8c460"/><path d="M7,33H9a1,1,0,1,0,0-2H7a1,1,0,1,0,0,2Z" style="fill:#f8c460"/><path d="M32,54a1,1,0,0,0-1,1v2a1,1,0,1,0,2,0V55A1,1,0,0,0,32,54Z" style="fill:#f8c460"/><path d="M48.971,47.558a1,1,0,1,0-1.414,1.414l1.414,1.414a1,1,0,0,0,1.414-1.414Z" style="fill:#f8c460"/><path d="M48.264,16.738a.993.993,0,0,0,.707-.293l1.414-1.414a1,1,0,0,0-1.414-1.414l-1.414,1.414a1,1,0,0,0,.707,1.707Z" style="fill:#f8c460"/></g></svg>