<?xml version="1.0" encoding="utf-8"?>
<!-- Generator: Adobe Illustrator 26.1.0, SVG Export Plug-In . SVG Version: 6.00 Build 0)  -->
<svg version="1.1" xmlns="http://www.w3.org/2000/svg" xmlns:xlink="http://www.w3.org/1999/xlink" x="0px" y="0px"
	 viewBox="0 0 2000 2000" style="enable-background:new 0 0 2000 2000;" xml:space="preserve">
<style type="text/css">
	.st0{opacity:0.15;fill:#C9C8DB;}
	.st1{fill:#F1F0FD;}
	.st2{fill:#A7A7C1;}
	.st3{fill:#D1D1E1;}
	.st4{fill:#C9C8DB;}
	.st5{fill:#C9C7DB;}
	.st6{fill:#9AA7BB;}
	.st7{fill:#487E93;}
	.st8{fill:none;stroke:#7A7C00;stroke-width:7.0335;stroke-linecap:round;stroke-miterlimit:10;}
	.st9{fill:none;stroke:#BABA00;stroke-width:7.0335;stroke-linecap:round;stroke-miterlimit:10;}
	.st10{fill:#6891A5;}
	.st11{fill:#7A7C00;}
	.st12{fill:#BABA00;}
</style>
<g id="Vidrio" style="opacity:1;">
	<g>
		<rect class="st0" width="2000" height="2000"/>
		<polygon class="st0" points="0,1694.18 0,0 1010.25,0 		"/>
		<g>
			<polygon class="st0" points="1347.02,0 154.41,2000 654.48,2000 1847.09,0 			"/>
		</g>
	</g>
</g>
<g id="Ventana" style="opacity:1;">
	<g>
		<rect x="96.64" y="101.33" class="st1" width="1806.3" height="70.23"/>
		<rect x="96.64" y="168.25" class="st2" width="1806.3" height="70.23"/>
		<rect x="96.64" y="235.16" class="st1" width="1806.3" height="70.23"/>
		<rect x="96.64" y="302.08" class="st2" width="1806.3" height="70.23"/>
		<rect x="1756.78" y="372.31" class="st3" width="12.46" height="195.81"/>
		<ellipse class="st3" cx="1760.51" cy="581.74" rx="22.84" ry="22.72"/>
		<path class="st4" d="M1900,100v1800H100V100H1900 M2000,0H0v2000h2000V0L2000,0z"/>
	</g>
</g>
<g id="Planta">
	<g>
		<path class="st5" d="M1802.36,1628.07l-104.1,2.67l-104.1-2.67l-4.85,25.78c-6.5,34.56-20.06,67.4-39.82,96.48l-9.37,13.8
			c-8.25,12.14-9.58,27.69-3.53,41.06l37.51,82.81h123.95h0.45h123.95l36.87-81.38c6.4-14.13,4.52-30.63-4.9-42.96v0
			c-27.83-36.42-45.37-79.64-50.79-125.16L1802.36,1628.07z"/>
		<path class="st6" d="M1536.57,1805.18l36.5,80.58h250.36l35.86-79.15c6.26-13.81,4.58-29.89-4.3-42.12h-315.12
			C1531.84,1776.58,1530.58,1791.95,1536.57,1805.18z"/>
		<ellipse class="st7" cx="1698.03" cy="1628.07" rx="104.33" ry="11.59"/>
		<path class="st8" d="M1642.74,1513.34c0,0,29.43,31.21,34.78,125.73"/>
		<path class="st8" d="M1663.85,1504.72c0,0,21.4,76.09,16.05,134.35"/>
		<path class="st9" d="M1743.5,1535.63c0,0-36.86,8.32-43.1,104.03"/>
		<line class="st8" x1="1688.22" y1="1508.88" x2="1686.44" y2="1639.06"/>
		<path class="st9" d="M1731.61,1350.16c0,0-38.64,209.25-38.05,290.1"/>
		<path class="st8" d="M1757.77,1362.64c0,0-20.21,26.16-43.99,145.64c-14.27,85.6-17.54,131.38-17.54,131.38"/>
		<path class="st10" d="M1823.55,1899.14H1572.5c-4.05,0-7.34-3.28-7.34-7.34v-0.49c0-4.05,3.28-7.34,7.34-7.34h251.05
			c4.05,0,7.34,3.28,7.34,7.34v0.49C1830.89,1895.85,1827.61,1899.14,1823.55,1899.14z"/>
		<path class="st11" d="M1635.91,1436.95c0,0-8.92-26.16-55.58-35.07c-17.54-1.78-43.4,0.89-43.4,0.89s0.89,18.13,12.19,25.86
			c-11.29-1.78-37.15,2.68-49.04,18.13c6.84,5.94,26.75,15.16,42.8,13.97c-13.08,8.92-31.21,37.45-33.59,79.06
			c10.7,3.27,74.9-8.62,85.01-35.67c-0.89,15.16-2.68,44.88,11.59,47.26c6.84-2.68,43.4-23.48,39.83-63.9
			c8.03,15.16,30.32,27.35,56.47,16.64C1702.19,1495.5,1700.41,1436.95,1635.91,1436.95z"/>
		<path class="st12" d="M1503.94,1281.2c0,0,13.08-52.02-43.1-62.42c-2.38,4.76-2.08,27.05,11,41.02
			c-17.54-13.08-50.83-19.91-75.2-9.81c5.05,10.7,22.89,27.94,44.88,30.61c-19.02,1.49-47.85,4.76-67.77,32.99
			c6.84,5.05,41.32,11.59,66.58,2.68c-8.62,11.89-23.48,35.07-24.67,57.37c13.67-0.3,33.88-1.49,60.64-30.91
			c-5.94,17.54-8.62,49.64,0.89,66.28c10.11-6.24,51.42-35.37,45.77-71.93c5.35,13.38,17.83,35.67,41.02,38.64
			c2.68-5.94,8.32-43.69-14.27-62.42c10.4,8.03,31.51,7.73,38.34,0.59C1583.59,1305.27,1553.57,1272.58,1503.94,1281.2z"/>
		<path class="st11" d="M1673.95,1106.72c-1.03,0.6-6.84-40.42-54.39-40.72c2.38,8.03,5.35,18.43,17.83,30.91
			c-16.65-13.38-49.64-20.81-69.25-6.84c8.62,10.11,12.78,22.29,28.83,24.67c-19.62-4.46-62.12-5.94-72.23,14.86
			c7.13,6.84,28.53,26.16,64.5,20.21c-7.43,5.94-38.64,28.24-25.56,69.55c9.51,3.57,79.66-8.32,81.14-58.85
			c4.46,5.35,7.13,16.64-1.19,33.59c-6.24,19.91-4.76,40.13,16.35,51.42c4.16-4.16,37.45-12.48,39.23-41.91
			c1.78-29.43-9.51-42.5-9.51-42.5c11.59,17.83,26.16,35.96,58.26,38.34c6.24-11-14.86-41.61-35.37-55.58
			c19.91,6.54,53.8,13.38,74.01,3.27c-1.49-9.21-27.35-32.1-52.61-34.48c13.67-2.68,19.91-7.43,19.91-7.43
			S1716.75,1081.76,1673.95,1106.72z"/>
		<path class="st12" d="M1852.88,1139.72c0,0-39.23,1.19-48.15-20.51c11.29-1.19,48.45-6.84,67.17,16.64
			c22.59-9.21,79.06-12.48,105.22,42.8c-11.29-2.68-35.67-12.78-48.45-21.4c18.13,16.05,19.32,24.97,19.32,24.97
			s-34.78-0.3-52.91-18.13c4.16,13.97,0.59,34.48,0.59,34.48S1852.59,1195.89,1852.88,1139.72z"/>
		<path class="st11" d="M1792.25,1271.39c0,0-72.82-6.54-83.22,77.87c5.05,2.68,42.21,0.3,49.34-10.4
			c-4.16,17.83,4.16,63.01,20.51,77.28c7.43-2.68,23.18-22.29,24.97-54.69c3.57,26.45,22,82.93,71.04,85.9
			c3.27-6.84,3.27-53.2-26.16-99.87c15.75,16.05,37.75,32.1,85.9,24.67c-0.59-5.94-12.19-29.43-42.5-48.15
			c15.46,0,38.64-2.38,41.02-17.24c-6.84-5.94-22.89-16.64-51.72-16.94c22-3.57,34.48-4.46,42.21-14.86
			c-9.21-6.54-22.89-20.21-65.99-18.13c16.05-8.62,23.48-26.16,23.48-26.16S1809.49,1219.67,1792.25,1271.39z"/>
		<path class="st12" d="M1784.22,1490.15c0,0-40.42-5.65-57.37,20.81c7.43,5.94,20.81,6.54,20.81,6.54s-8.03,11-3.27,28.53
			c8.62-2.08,21.1-8.32,30.32-18.43c-0.3,8.62,12.48,32.99,24.37,34.78c6.24-11.29,5.35-21.99,5.65-33.88
			c7.43,11,25.56,21.7,55.28,18.13c0.3-9.51-11.29-29.13-27.94-41.02c13.97,0.3,32.4,0.59,38.34-12.78
			c-8.92-2.08-30.61-7.73-39.83-3.86c12.78-6.84,14.56-13.38,14.56-13.38s-25.26,0.89-35.07,4.16
			c13.97-8.62,13.97-16.35,13.97-16.35S1791.95,1466.08,1784.22,1490.15z"/>
		<g>
			<path class="st12" d="M1573.49,1439.62c4.39-0.33,8.79-0.55,13.19-0.72c4.4-0.17,8.8-0.29,13.21-0.28c4.41,0,8.82,0.08,13.23,0.4
				c2.21,0.16,4.41,0.38,6.62,0.73c1.1,0.18,2.21,0.4,3.31,0.72c0.55,0.15,1.1,0.34,1.65,0.58c0.55,0.24,1.1,0.51,1.62,0.97
				l0.72,0.63l-0.78,0.58l-11.77,8.76l-11.8,8.72l-11.82,8.68l-11.85,8.65c-7.91,5.76-15.83,11.48-23.79,17.18l-5.97,4.27
				l-5.99,4.24c-3.99,2.82-7.98,5.65-12,8.44c3.86-3.01,7.75-5.97,11.63-8.95l5.83-4.46l5.85-4.43c7.8-5.9,15.63-11.77,23.47-17.6
				l11.78-8.74l11.81-8.71l11.83-8.67l11.86-8.63l-0.06,1.2c-0.3-0.28-0.74-0.52-1.2-0.72c-0.46-0.2-0.95-0.38-1.46-0.53
				c-1.01-0.3-2.07-0.54-3.13-0.73c-2.13-0.39-4.3-0.64-6.48-0.84c-4.36-0.39-8.75-0.59-13.14-0.71c-4.39-0.11-8.79-0.17-13.19-0.17
				C1582.29,1439.48,1577.89,1439.53,1573.49,1439.62z"/>
			<path class="st12" d="M1572.89,1419.41c4.73,1.12,9.4,2.45,14.06,3.84c2.33,0.69,4.64,1.45,6.95,2.22
				c2.31,0.77,4.6,1.58,6.88,2.44c4.56,1.72,9.07,3.57,13.44,5.77c2.19,1.1,4.34,2.27,6.42,3.61c2.06,1.35,4.07,2.84,5.81,4.72
				l0.29,0.31l-0.08,0.43l-1.65,9.18l-1.7,9.17c-1.12,6.12-2.3,12.22-3.46,18.33c-1.19,6.1-2.38,12.21-3.61,18.31l-1.88,9.14
				c-0.63,3.05-1.26,6.09-1.93,9.13c0.45-3.08,0.93-6.15,1.41-9.22l1.46-9.22c1-6.14,2.04-12.27,3.08-18.4
				c1.07-6.13,2.11-12.26,3.23-18.38l1.65-9.18l1.69-9.17l0.21,0.74c-1.56-1.7-3.47-3.14-5.45-4.46c-1.98-1.33-4.08-2.51-6.21-3.62
				c-2.13-1.11-4.31-2.15-6.51-3.14c-2.2-0.99-4.42-1.95-6.67-2.85c-4.48-1.82-9.03-3.5-13.6-5.12
				C1582.14,1422.36,1577.53,1420.86,1572.89,1419.41z"/>
			<path class="st12" d="M1625.8,1442.59c4.91,3.35,9.71,6.84,14.47,10.38c2.39,1.76,4.74,3.56,7.11,5.34l7.05,5.42l6.99,5.5
				c2.31,1.86,4.64,3.69,6.93,5.58c4.6,3.74,9.16,7.54,13.62,11.47c-4.91-3.35-9.71-6.84-14.47-10.37
				c-2.39-1.76-4.74-3.56-7.11-5.34l-7.05-5.42l-6.99-5.5c-2.31-1.86-4.64-3.69-6.93-5.58
				C1634.82,1450.32,1630.26,1446.53,1625.8,1442.59z"/>
		</g>
		<g>
			<path class="st11" d="M1426.06,1360.26c1.14-1.83,2.24-3.69,3.42-5.49c1.2-1.79,2.37-3.61,3.63-5.36l1.87-2.64l1.93-2.6l0.97-1.3
				l1-1.27l2.01-2.54c5.49-6.67,11.37-13.04,17.68-18.96c3.14-2.97,6.4-5.83,9.75-8.57c3.35-2.74,6.78-5.39,10.31-7.9
				c3.53-2.51,7.14-4.9,10.84-7.17c3.71-2.25,7.46-4.39,11.44-6.25l0.3,1.68c-7.5-0.45-15.05-0.59-22.57-0.62
				c-3.77,0-7.53,0.05-11.3,0.17c-3.76,0.12-7.53,0.26-11.29,0.51c-3.76,0.25-7.51,0.55-11.25,0.98c-3.74,0.43-7.47,0.97-11.17,1.61
				c-3.7,0.67-7.38,1.47-11,2.52c-3.61,1.06-7.18,2.32-10.53,4.06c3.27-1.9,6.8-3.32,10.4-4.49c3.6-1.17,7.27-2.1,10.98-2.9
				c7.42-1.52,14.95-2.44,22.48-3.09c7.54-0.64,15.11-0.94,22.67-1.01c7.57-0.08,15.12,0.08,22.7,0.5l3.45,0.19l-3.14,1.49
				c-3.82,1.81-7.58,3.95-11.25,6.15c-3.66,2.23-7.25,4.59-10.76,7.06c-7.02,4.94-13.73,10.33-20.08,16.12
				c-6.38,5.75-12.36,11.96-17.95,18.49c-2.77,3.29-5.52,6.6-8.08,10.07C1430.91,1353.13,1428.47,1356.69,1426.06,1360.26z"/>
			<path class="st11" d="M1428.14,1253.56c3.32,1.09,6.62,2.24,9.91,3.43c3.29,1.19,6.57,2.39,9.84,3.64
				c3.26,1.26,6.52,2.54,9.76,3.86c3.23,1.34,6.46,2.69,9.67,4.1c6.41,2.83,12.75,5.81,18.93,9.16c3.08,1.69,6.12,3.47,9.05,5.44
				c2.92,1.99,5.79,4.12,8.13,6.99l-0.72-0.34c6.06-0.06,12.05,0.3,18.03,0.96c5.98,0.65,11.92,1.64,17.78,3.02
				c5.85,1.38,11.62,3.19,17.15,5.56c2.75,1.22,5.45,2.55,8.05,4.05c2.59,1.52,5.06,3.23,7.39,5.12c-2.43-1.75-4.98-3.31-7.6-4.73
				c-2.64-1.39-5.37-2.6-8.14-3.69c-2.78-1.06-5.61-2.01-8.46-2.85c-2.86-0.82-5.76-1.53-8.66-2.16c-2.91-0.63-5.85-1.14-8.79-1.59
				c-2.94-0.46-5.9-0.82-8.86-1.11c-5.92-0.56-11.9-0.91-17.81-0.82l-0.4,0.01l-0.32-0.35c-0.56-0.61-1.05-1.27-1.7-1.84l-0.92-0.87
				l-0.98-0.82c-0.64-0.56-1.34-1.07-2.03-1.58c-0.68-0.53-1.4-1-2.11-1.49c-2.86-1.94-5.85-3.7-8.89-5.39
				c-6.09-3.36-12.36-6.42-18.7-9.35c-3.16-1.47-6.35-2.89-9.55-4.29c-3.19-1.41-6.41-2.78-9.63-4.14
				c-3.22-1.36-6.44-2.71-9.68-4.03l-4.86-1.96L1428.14,1253.56z"/>
			<path class="st11" d="M1476,1237.51c2.98,3.2,5.6,6.71,8.02,10.36c2.42,3.65,4.57,7.48,6.45,11.45c0.91,2,1.78,4.02,2.54,6.08
				c0.73,2.08,1.42,4.16,1.94,6.31c0.52,2.14,0.93,4.31,1.16,6.49c0.21,2.19,0.28,4.39,0.1,6.57c-0.22-2.18-0.52-4.32-0.96-6.43
				c-0.44-2.12-1.02-4.19-1.64-6.25c-1.3-4.1-2.91-8.11-4.75-12.01c-0.89-1.96-1.88-3.88-2.89-5.79c-0.99-1.92-2.06-3.8-3.13-5.68
				C1480.67,1244.85,1478.39,1241.15,1476,1237.51z"/>
			<path class="st11" d="M1492.05,1296.36c1.11,8.17,1.63,16.41,1.77,24.66c0.03,2.06,0.03,4.13,0.02,6.19
				c-0.01,2.06-0.09,4.13-0.13,6.19c-0.02,2.06-0.18,4.12-0.28,6.18l-0.17,3.09c-0.06,1.03-0.16,2.06-0.24,3.09
				c-0.19,2.06-0.35,4.11-0.57,6.17l-0.75,6.15l-0.2,1.54l-0.25,1.53l-0.5,3.06c-0.33,2.04-0.64,4.08-1.1,6.09l-1.28,6.06
				c-0.47,2.01-1.03,4-1.55,6l-0.8,2.99c-0.29,0.99-0.62,1.97-0.94,2.95c-0.64,1.96-1.29,3.92-1.95,5.86c0.48-2.01,0.97-4,1.48-6
				c0.24-1,0.52-1.99,0.75-2.99l0.62-3.02c0.41-2.01,0.88-4.01,1.25-6.03l1.05-6.07c0.38-2.02,0.62-4.06,0.92-6.08l0.43-3.05
				l0.21-1.52l0.16-1.53l0.69-6.11c0.21-2.04,0.35-4.09,0.53-6.13c0.09-1.02,0.2-2.04,0.26-3.07l0.19-3.07
				c0.12-2.05,0.27-4.09,0.34-6.15c0.08-2.05,0.2-4.1,0.25-6.15l0.15-6.16l0.05-6.16c-0.02-2.05,0-4.11-0.05-6.16
				C1492.41,1304.58,1492.24,1300.47,1492.05,1296.36z"/>
			<path class="st11" d="M1503.94,1290.41c6.55,4.37,12.66,9.4,18.4,14.8c2.88,2.69,5.64,5.52,8.33,8.41
				c2.66,2.92,5.21,5.94,7.65,9.05c2.43,3.12,4.7,6.36,6.86,9.68l1.57,2.51l1.49,2.56c0.51,0.85,0.97,1.72,1.43,2.6
				c0.45,0.88,0.94,1.74,1.36,2.64c1.79,3.53,3.28,7.2,4.61,10.92c1.28,3.74,2.27,7.57,2.98,11.44c-1.1-3.78-2.3-7.51-3.8-11.13
				c-0.35-0.91-0.77-1.8-1.15-2.7l-0.59-1.34l-0.64-1.32c-0.43-0.88-0.84-1.76-1.28-2.64l-1.37-2.59c-1.89-3.41-3.84-6.8-6.04-10.03
				c-2.17-3.25-4.42-6.44-6.85-9.5c-4.79-6.17-10.03-12.01-15.54-17.56c-2.76-2.77-5.59-5.49-8.5-8.12
				C1509.99,1295.42,1507,1292.88,1503.94,1290.41z"/>
		</g>
		<g>
			<path class="st12" d="M1658.2,1129.02c-1.17,0.55-2.33,1.13-3.48,1.72c-1.16,0.58-2.31,1.17-3.45,1.77
				c-2.29,1.21-4.56,2.44-6.8,3.72c-4.51,2.52-8.94,5.18-13.3,7.94c-4.35,2.78-8.64,5.65-12.8,8.69c-1.03,0.77-2.09,1.51-3.11,2.29
				l-3.07,2.35c-2.01,1.61-4.04,3.2-5.98,4.89c-0.98,0.83-1.98,1.65-2.92,2.52c-0.95,0.86-1.93,1.71-2.87,2.58l-2.79,2.67
				c-0.94,0.88-1.8,1.83-2.72,2.74c-3.58,3.69-7,7.55-10.07,11.67c-0.81,1-1.52,2.07-2.26,3.13c-0.73,1.06-1.49,2.1-2.14,3.2
				c-0.67,1.09-1.38,2.17-2.03,3.28l-1.85,3.39c-2.36,4.58-4.28,9.38-5.73,14.36c1.06-5.07,2.78-10.01,4.94-14.74l1.74-3.5
				c0.62-1.15,1.29-2.26,1.93-3.4c0.62-1.15,1.36-2.22,2.07-3.31c0.72-1.09,1.41-2.19,2.2-3.23c0.77-1.05,1.53-2.11,2.31-3.15
				l2.46-3.04c0.4-0.51,0.83-1,1.27-1.49l1.29-1.46l1.29-1.46l1.35-1.41c3.57-3.79,7.41-7.33,11.37-10.7
				c7.94-6.74,16.5-12.69,25.39-18.04c4.45-2.68,9-5.18,13.62-7.53C1648.7,1133.16,1653.37,1130.91,1658.2,1129.02z"/>
			<path class="st12" d="M1605.59,1094.83c4.7,1.8,9.31,3.8,13.91,5.85c4.58,2.08,9.12,4.26,13.58,6.61
				c2.23,1.18,4.44,2.38,6.63,3.65c2.18,1.28,4.33,2.6,6.44,4c2.1,1.42,4.17,2.9,6.11,4.56c1.93,1.67,3.81,3.48,5.22,5.79l0.75,1.23
				l-1.47,0.08c-5.79,0.33-11.59,0.58-17.39,0.87l-17.39,0.76l-8.7,0.33l-8.7,0.29l-8.7,0.24l-4.35,0.12l-4.35,0.08l4.34-0.37
				l4.34-0.33l8.68-0.66l8.69-0.6l8.69-0.56l17.38-1.03c5.8-0.3,11.59-0.64,17.39-0.91l-0.72,1.31c-1.2-2-2.97-3.75-4.82-5.36
				c-1.87-1.6-3.86-3.1-5.91-4.52c-4.11-2.81-8.42-5.38-12.78-7.84c-2.19-1.22-4.39-2.41-6.61-3.59c-2.22-1.18-4.46-2.31-6.69-3.45
				C1614.67,1099.13,1610.14,1096.97,1605.59,1094.83z"/>
			<path class="st12" d="M1642.74,1083.54c3.1,2.25,5.74,5.1,8.06,8.16c2.32,3.07,4.33,6.39,5.92,9.9c0.43,0.86,0.76,1.77,1.12,2.67
				l0.53,1.35c0.19,0.44,0.34,0.9,0.47,1.36l0.84,2.76c0.28,0.92,0.45,1.87,0.66,2.81c0.19,0.94,0.45,1.87,0.54,2.83l0.36,2.85
				c0.14,0.95,0.13,1.91,0.17,2.87c0.03,0.96,0.05,1.91,0.05,2.86c-0.19-0.94-0.38-1.87-0.54-2.81c-0.19-0.93-0.28-1.87-0.55-2.79
				c-0.45-1.84-0.81-3.69-1.39-5.48l-0.4-1.35c-0.13-0.45-0.24-0.91-0.41-1.35l-0.94-2.65c-0.28-0.89-0.68-1.75-1.02-2.62
				c-0.36-0.87-0.69-1.74-1.12-2.58c-0.4-0.85-0.78-1.7-1.2-2.54c-0.44-0.83-0.89-1.65-1.32-2.48c-0.91-1.64-1.88-3.24-2.91-4.82
				C1647.61,1089.36,1645.34,1086.33,1642.74,1083.54z"/>
			<path class="st12" d="M1666.52,1122.77c3.18-2.63,6.62-4.93,10.16-7.04c0.88-0.54,1.78-1.04,2.69-1.54
				c0.9-0.51,1.81-0.99,2.73-1.46c1.83-0.96,3.72-1.8,5.6-2.67c1.92-0.78,3.82-1.59,5.79-2.25l1.47-0.51
				c0.49-0.17,0.99-0.3,1.49-0.45c0.99-0.3,1.99-0.59,2.99-0.85c4.02-1,8.15-1.62,12.27-1.66c-4.05,0.77-8,1.76-11.88,2.99
				c-1.91,0.7-3.87,1.27-5.75,2.06c-0.94,0.38-1.91,0.69-2.84,1.11l-2.81,1.19c-1.86,0.82-3.73,1.64-5.56,2.54
				c-0.93,0.43-1.85,0.86-2.76,1.33c-0.91,0.46-1.83,0.9-2.74,1.37C1673.72,1118.81,1670.11,1120.75,1666.52,1122.77z"/>
			<path class="st12" d="M1664.74,1125.45c8-1.42,16.11-2.21,24.24-2.53c4.07-0.17,8.14-0.19,12.21-0.08
				c4.07,0.12,8.14,0.38,12.2,0.79c4.05,0.46,8.1,1.06,12.1,1.87c3.99,0.86,7.96,1.91,11.81,3.29c3.87,1.34,7.59,3.11,11.09,5.23
				c3.48,2.14,6.72,4.7,9.39,7.78c-2.95-2.8-6.28-5.12-9.82-7.02l-1.33-0.72c-0.44-0.24-0.91-0.43-1.36-0.65l-1.37-0.63
				c-0.45-0.21-0.91-0.42-1.38-0.6l-2.8-1.11l-2.86-0.97c-3.84-1.2-7.74-2.2-11.69-2.96c-3.96-0.75-7.95-1.33-11.96-1.75
				c-8.02-0.84-16.11-1.14-24.19-1.09c-4.04,0.03-8.09,0.13-12.14,0.33C1672.82,1124.79,1668.78,1125.09,1664.74,1125.45z"/>
			<path class="st12" d="M1662.06,1128.12c7.4,2.85,14.51,6.48,21.34,10.53c6.83,4.06,13.4,8.59,19.59,13.6
				c6.18,5.02,12.02,10.48,17.26,16.48c5.28,5.96,9.92,12.49,13.74,19.44c-4.45-6.56-9.35-12.77-14.77-18.5
				c-1.33-1.45-2.74-2.83-4.12-4.24c-0.7-0.7-1.42-1.37-2.12-2.05l-1.07-1.02l-1.09-0.99c-2.88-2.69-5.88-5.24-8.95-7.72
				c-3.05-2.5-6.2-4.87-9.41-7.16c-3.2-2.31-6.48-4.5-9.79-6.64c-3.33-2.12-6.7-4.17-10.14-6.13
				C1669.12,1131.72,1665.62,1129.87,1662.06,1128.12z"/>
			<path class="st12" d="M1660.28,1130.8c2.97,7.18,5.09,14.71,6.65,22.34c1.58,7.63,2.49,15.4,2.86,23.19c0.13,3.9,0.15,7.8,0,11.7
				c-0.04,0.97-0.12,1.95-0.17,2.92l-0.09,1.46l-0.13,1.46l-0.27,2.91l-0.38,2.9c-0.11,0.97-0.27,1.93-0.43,2.89
				c-0.16,0.96-0.3,1.93-0.49,2.88c-0.4,1.91-0.74,3.83-1.23,5.71c-0.88,3.79-2.05,7.51-3.34,11.17c0.91-3.78,1.85-7.53,2.48-11.35
				c0.38-1.89,0.63-3.81,0.93-5.72c0.13-0.96,0.24-1.92,0.37-2.87c0.12-0.96,0.25-1.91,0.32-2.88c0.78-7.68,0.98-15.41,0.65-23.11
				c-0.15-3.85-0.46-7.7-0.86-11.54c-0.39-3.84-0.94-7.66-1.57-11.47c-0.65-3.81-1.39-7.6-2.27-11.37
				C1662.45,1138.25,1661.44,1134.5,1660.28,1130.8z"/>
		</g>
		<g>
			<path class="st12" d="M1796.71,1294.57c-3.9,0-7.79,0.25-11.64,0.78c-3.85,0.49-7.67,1.19-11.43,2.09
				c-3.76,0.93-7.47,2.03-11.08,3.4c-3.61,1.36-7.15,2.91-10.53,4.77c-3.39,1.84-6.64,3.91-9.73,6.21
				c-3.06,2.34-5.97,4.88-8.67,7.64c-5.38,5.54-9.87,11.95-13.6,18.8l1.22-2.66c0.42-0.88,0.81-1.78,1.29-2.63
				c0.94-1.72,1.86-3.45,2.95-5.08c2.06-3.34,4.52-6.43,7.13-9.37l2.03-2.15c0.33-0.37,0.69-0.7,1.06-1.03l1.08-1.01l1.08-1.01
				c0.36-0.34,0.75-0.64,1.13-0.96c0.76-0.63,1.51-1.27,2.28-1.88c3.13-2.4,6.46-4.54,9.91-6.44c6.95-3.73,14.46-6.37,22.15-7.96
				C1781.02,1294.52,1788.93,1293.88,1796.71,1294.57z"/>
			<path class="st12" d="M1805.03,1295.76c-2.61,3.39-4.93,6.97-7.08,10.64c-2.16,3.67-4.14,7.44-5.96,11.28
				c-1.81,3.85-3.48,7.75-4.95,11.74c-1.5,3.97-2.81,8.01-3.93,12.11c-0.6,2.04-1.08,4.1-1.6,6.16c-0.44,2.08-0.93,4.14-1.29,6.23
				c-0.84,4.16-1.37,8.38-1.86,12.6c-0.85,8.46-1.04,16.99-0.66,25.54c-1.12-8.48-1.33-17.09-0.73-25.66
				c0.64-8.56,2.1-17.08,4.42-25.36c2.3-8.28,5.45-16.33,9.36-23.98C1794.67,1309.45,1799.3,1302.13,1805.03,1295.76z"/>
			<path class="st12" d="M1811.57,1297.55c0.05,4.81,0.36,9.6,0.84,14.38c0.46,4.78,1.09,9.53,1.83,14.26
				c1.51,9.46,3.56,18.83,6.21,28.03c2.61,9.21,5.85,18.24,9.6,27.05c3.79,8.8,8.17,17.35,13.03,25.65
				c-5.48-7.91-10.24-16.33-14.3-25.09c-0.98-2.2-2.01-4.39-2.89-6.63c-0.45-1.12-0.93-2.23-1.36-3.35l-1.29-3.38
				c-0.45-1.12-0.81-2.27-1.21-3.41c-0.4-1.14-0.8-2.28-1.16-3.43l-1.1-3.45l-1.02-3.47c-1.3-4.65-2.48-9.33-3.46-14.06
				c-0.96-4.73-1.79-9.48-2.4-14.27C1811.63,1316.83,1811,1307.16,1811.57,1297.55z"/>
			<path class="st12" d="M1807.71,1291.3c0.73-3.06,1.77-6.05,2.9-9c1.15-2.94,2.44-5.83,3.89-8.64c2.9-5.62,6.41-10.96,10.57-15.77
				c2.11-2.38,4.38-4.63,6.81-6.69c2.47-2.02,5.1-3.84,7.89-5.38c2.79-1.55,5.78-2.71,8.82-3.61l2.31-0.57
				c0.77-0.19,1.56-0.28,2.34-0.42l1.17-0.19c0.39-0.05,0.79-0.07,1.18-0.11l2.36-0.17l-2.32,0.43c-0.38,0.07-0.77,0.13-1.15,0.22
				l-1.14,0.29c-0.75,0.21-1.52,0.36-2.26,0.6l-2.22,0.74c-0.37,0.11-0.73,0.26-1.09,0.41l-1.08,0.44l-1.08,0.44
				c-0.35,0.16-0.7,0.34-1.05,0.51c-0.69,0.35-1.4,0.66-2.08,1.04l-2.02,1.15c-2.63,1.63-5.16,3.42-7.49,5.46
				c-2.33,2.04-4.52,4.23-6.56,6.57c-2.06,2.32-3.93,4.81-5.71,7.36c-1.79,2.54-3.42,5.2-4.98,7.9c-1.53,2.72-2.99,5.49-4.31,8.32
				C1810.06,1285.48,1808.81,1288.36,1807.71,1291.3z"/>
			<path class="st12" d="M1814.54,1292.2c4.94-3.52,10.28-6.46,15.78-9.07c2.74-1.31,5.56-2.48,8.39-3.59
				c2.85-1.08,5.74-2.04,8.66-2.91c2.93-0.85,5.9-1.55,8.89-2.14l2.25-0.4l2.26-0.33c0.75-0.12,1.51-0.2,2.27-0.28
				c0.76-0.07,1.52-0.17,2.28-0.21c3.04-0.26,6.1-0.26,9.14-0.13c3.04,0.18,6.07,0.58,9.03,1.22c-3.02-0.25-6.03-0.41-9.04-0.34
				c-0.75,0-1.5,0.05-2.25,0.08l-1.13,0.05l-1.12,0.09l-2.24,0.18l-2.24,0.25c-2.97,0.4-5.94,0.83-8.87,1.5
				c-2.93,0.63-5.85,1.33-8.73,2.2c-5.77,1.66-11.43,3.72-16.99,6.05C1825.33,1286.74,1819.87,1289.31,1814.54,1292.2z"/>
			<path class="st12" d="M1817.22,1296.06c1.89,0.01,3.77,0.2,5.65,0.34l5.64,0.48c3.76,0.35,7.51,0.73,11.26,1.14
				c3.75,0.39,7.49,0.84,11.24,1.27l11.23,1.38l11.21,1.49c3.73,0.53,7.47,1.03,11.2,1.59c7.46,1.1,14.91,2.26,22.34,3.6
				c-7.52-0.61-15.03-1.38-22.52-2.22c-3.75-0.4-7.49-0.87-11.23-1.3l-11.22-1.39l-11.21-1.48c-3.73-0.52-7.47-1.02-11.2-1.57
				c-3.73-0.53-7.46-1.09-11.19-1.65C1824.68,1297.16,1820.95,1296.55,1817.22,1296.06z"/>
			<path class="st12" d="M1815.43,1298.14c3.87,3.35,7.74,6.68,11.69,9.92c3.92,3.27,7.88,6.5,11.86,9.7
				c7.98,6.38,16.06,12.61,24.36,18.55c4.13,3,8.34,5.88,12.58,8.7c4.23,2.84,8.58,5.51,12.96,8.12c4.39,2.6,8.87,5.02,13.46,7.24
				c4.58,2.23,9.29,4.23,14.14,5.84c-4.97-1.23-9.8-3.02-14.51-5.04c-4.7-2.05-9.31-4.32-13.78-6.83c-1.13-0.6-2.24-1.25-3.35-1.89
				c-1.11-0.64-2.22-1.28-3.31-1.96l-3.28-2l-3.25-2.06c-4.3-2.79-8.54-5.68-12.7-8.66c-4.15-3.01-8.25-6.07-12.29-9.23
				c-4.02-3.18-8.01-6.39-11.91-9.7C1830.28,1312.23,1822.68,1305.36,1815.43,1298.14z"/>
		</g>
		<path class="st8" d="M1676.33,1236.61c0,0,40.42,110.57,18.43,234.81"/>
		<path class="st9" d="M1565.76,1341.83c0,0,46.37,13.08,79.06,95.71"/>
		<path class="st9" d="M1852.88,1139.72c0,0-66.58,20.81-99.87,139.7"/>
	</g>
</g>
	<style>
		#Vidrio{
			opacity:1;
		}
	</style>
</svg>
